<svg xmlns="http://www.w3.org/2000/svg" width="210.0mm" height="297.0mm" viewBox="0 0 210.0 297.0">
<rect width="210.0" height="297.0" fill="#ffffff"/><line x1="28.00" y1="48.50" x2="23.00" y2="48.50" stroke="#171a14" stroke-width="0.25"/><line x1="30.00" y1="46.50" x2="30.00" y2="41.50" stroke="#171a14" stroke-width="0.25"/><line x1="182.00" y1="48.50" x2="187.00" y2="48.50" stroke="#171a14" stroke-width="0.25"/><line x1="180.00" y1="46.50" x2="180.00" y2="41.50" stroke="#171a14" stroke-width="0.25"/><line x1="28.00" y1="248.50" x2="23.00" y2="248.50" stroke="#171a14" stroke-width="0.25"/><line x1="30.00" y1="250.50" x2="30.00" y2="255.50" stroke="#171a14" stroke-width="0.25"/><line x1="182.00" y1="248.50" x2="187.00" y2="248.50" stroke="#171a14" stroke-width="0.25"/><line x1="180.00" y1="250.50" x2="180.00" y2="255.50" stroke="#171a14" stroke-width="0.25"/>
<g transform="translate(30.0,48.5)">
<rect width="150.0" height="200.0" fill="#f4f1ea"/>
<rect x="0.6" y="0.6" width="148.8" height="198.8" rx="7" fill="none" stroke="#171a14" stroke-width="0.9"/>
<rect x="7" y="7" width="136.0" height="186.0" rx="4" fill="none" stroke="#171a14" stroke-width="0.3"
 stroke-dasharray="1.6 2.4" opacity="0.55"/>
<g fill="none" stroke="#171a14" stroke-width="15" transform="translate(63.0,17) scale(0.08)"><path d="M 52 74 Q 52 52 74 52 H 164 Q 248 52 248 136 V 226 Q 248 248 226 248 H 74 Q 52 248 52 226 Z" stroke-linejoin="round"/><path d="M 164 52 Q 164 136 248 136" stroke-linecap="round"/><path d="M 82 84 H 152 M 82 84 V 218 M 82 218 H 218 M 218 218 V 158" stroke-linecap="round" stroke-dasharray="1 22" stroke-width="9"/></g>
<text x="75.0" y="53.5" font-family="Fraunces" font-weight="600" font-size="13.5" text-anchor="middle" fill="#171a14">Lease-a-Fleece</text>
<text x="75.0" y="60.5" font-family="IBM Plex Mono" font-size="3.1" letter-spacing="1.5" text-anchor="middle" fill="#5f5f54">EST. 1986 · GRONINGEN</text>
<line x1="18" y1="70" x2="132" y2="70" stroke="#171a14" stroke-width="0.35"/>
<text x="75.0" y="81" font-family="IBM Plex Mono" font-size="3.3" letter-spacing="2.2" text-anchor="middle" fill="#5f5f54">PROPERTY OF</text>
<text x="75.0" y="93.5" font-family="Fraunces" font-weight="600" font-size="10.5" text-anchor="middle" fill="#171a14">Lease-a-Fleece B.V.</text>
<line x1="18" y1="101" x2="132" y2="101" stroke="#171a14" stroke-width="0.35"/>
<text x="18" y="108.0" font-family="IBM Plex Mono" font-size="3.1" letter-spacing="0.35" fill="#5f5f54">LESSEE</text><text x="132" y="108.0" font-family="IBM Plex Mono" font-weight="500" font-size="3.1" letter-spacing="0.2" text-anchor="end" fill="#171a14">JARNO OLIJVE</text><line x1="18" y1="109.9" x2="132" y2="109.9" stroke="#171a14" stroke-width="0.12" opacity="0.35"/><text x="18" y="113.6" font-family="IBM Plex Mono" font-size="3.1" letter-spacing="0.35" fill="#5f5f54">LESSEE AGE</text><text x="132" y="113.6" font-family="IBM Plex Mono" font-weight="500" font-size="3.1" letter-spacing="0.2" text-anchor="end" fill="#171a14">40 YEARS</text><line x1="18" y1="115.5" x2="132" y2="115.5" stroke="#171a14" stroke-width="0.12" opacity="0.35"/><text x="18" y="119.2" font-family="IBM Plex Mono" font-size="3.1" letter-spacing="0.35" fill="#5f5f54">UNIT</text><text x="132" y="119.2" font-family="IBM Plex Mono" font-weight="500" font-size="3.1" letter-spacing="0.2" text-anchor="end" fill="#171a14">LAF-U-001 · FJORD</text><line x1="18" y1="121.10000000000001" x2="132" y2="121.10000000000001" stroke="#171a14" stroke-width="0.12" opacity="0.35"/><text x="18" y="124.8" font-family="IBM Plex Mono" font-size="3.1" letter-spacing="0.35" fill="#5f5f54">COLOURWAY</text><text x="132" y="124.8" font-family="IBM Plex Mono" font-weight="500" font-size="3.1" letter-spacing="0.2" text-anchor="end" fill="#171a14">OLIVE</text><line x1="18" y1="126.7" x2="132" y2="126.7" stroke="#171a14" stroke-width="0.12" opacity="0.35"/><text x="18" y="130.4" font-family="IBM Plex Mono" font-size="3.1" letter-spacing="0.35" fill="#5f5f54">TERM</text><text x="132" y="130.4" font-family="IBM Plex Mono" font-weight="500" font-size="3.1" letter-spacing="0.2" text-anchor="end" fill="#171a14">PERPETUAL</text><line x1="18" y1="132.3" x2="132" y2="132.3" stroke="#171a14" stroke-width="0.12" opacity="0.35"/><text x="18" y="136.0" font-family="IBM Plex Mono" font-size="3.1" letter-spacing="0.35" fill="#5f5f54">CONDITION</text><text x="132" y="136.0" font-family="IBM Plex Mono" font-weight="500" font-size="3.1" letter-spacing="0.2" text-anchor="end" fill="#171a14">BOTH PARTIES SERVICEABLE</text>
<g shape-rendering="crispEdges"><rect x="18.000" y="138.000" width="1.537" height="1.537" fill="#171a14"/><rect x="19.517" y="138.000" width="1.537" height="1.537" fill="#171a14"/><rect x="21.034" y="138.000" width="1.537" height="1.537" fill="#171a14"/><rect x="22.552" y="138.000" width="1.537" height="1.537" fill="#171a14"/><rect x="24.069" y="138.000" width="1.537" height="1.537" fill="#171a14"/><rect x="25.586" y="138.000" width="1.537" height="1.537" fill="#171a14"/><rect x="27.103" y="138.000" width="1.537" height="1.537" fill="#171a14"/><rect x="30.138" y="138.000" width="1.537" height="1.537" fill="#171a14"/><rect x="31.655" y="138.000" width="1.537" height="1.537" fill="#171a14"/><rect x="37.724" y="138.000" width="1.537" height="1.537" fill="#171a14"/><rect x="39.241" y="138.000" width="1.537" height="1.537" fill="#171a14"/><rect x="42.276" y="138.000" width="1.537" height="1.537" fill="#171a14"/><rect x="43.793" y="138.000" width="1.537" height="1.537" fill="#171a14"/><rect x="51.379" y="138.000" width="1.537" height="1.537" fill="#171a14"/><rect x="52.897" y="138.000" width="1.537" height="1.537" fill="#171a14"/><rect x="54.414" y="138.000" width="1.537" height="1.537" fill="#171a14"/><rect x="55.931" y="138.000" width="1.537" height="1.537" fill="#171a14"/><rect x="57.448" y="138.000" width="1.537" height="1.537" fill="#171a14"/><rect x="58.966" y="138.000" width="1.537" height="1.537" fill="#171a14"/><rect x="60.483" y="138.000" width="1.537" height="1.537" fill="#171a14"/><rect x="18.000" y="139.517" width="1.537" height="1.537" fill="#171a14"/><rect x="27.103" y="139.517" width="1.537" height="1.537" fill="#171a14"/><rect x="30.138" y="139.517" width="1.537" height="1.537" fill="#171a14"/><rect x="31.655" y="139.517" width="1.537" height="1.537" fill="#171a14"/><rect x="37.724" y="139.517" width="1.537" height="1.537" fill="#171a14"/><rect x="39.241" y="139.517" width="1.537" height="1.537" fill="#171a14"/><rect x="48.345" y="139.517" width="1.537" height="1.537" fill="#171a14"/><rect x="51.379" y="139.517" width="1.537" height="1.537" fill="#171a14"/><rect x="60.483" y="139.517" width="1.537" height="1.537" fill="#171a14"/><rect x="18.000" y="141.034" width="1.537" height="1.537" fill="#171a14"/><rect x="21.034" y="141.034" width="1.537" height="1.537" fill="#171a14"/><rect x="22.552" y="141.034" width="1.537" height="1.537" fill="#171a14"/><rect x="24.069" y="141.034" width="1.537" height="1.537" fill="#171a14"/><rect x="27.103" y="141.034" width="1.537" height="1.537" fill="#171a14"/><rect x="37.724" y="141.034" width="1.537" height="1.537" fill="#171a14"/><rect x="39.241" y="141.034" width="1.537" height="1.537" fill="#171a14"/><rect x="40.759" y="141.034" width="1.537" height="1.537" fill="#171a14"/><rect x="43.793" y="141.034" width="1.537" height="1.537" fill="#171a14"/><rect x="46.828" y="141.034" width="1.537" height="1.537" fill="#171a14"/><rect x="51.379" y="141.034" width="1.537" height="1.537" fill="#171a14"/><rect x="54.414" y="141.034" width="1.537" height="1.537" fill="#171a14"/><rect x="55.931" y="141.034" width="1.537" height="1.537" fill="#171a14"/><rect x="57.448" y="141.034" width="1.537" height="1.537" fill="#171a14"/><rect x="60.483" y="141.034" width="1.537" height="1.537" fill="#171a14"/><rect x="18.000" y="142.552" width="1.537" height="1.537" fill="#171a14"/><rect x="21.034" y="142.552" width="1.537" height="1.537" fill="#171a14"/><rect x="22.552" y="142.552" width="1.537" height="1.537" fill="#171a14"/><rect x="24.069" y="142.552" width="1.537" height="1.537" fill="#171a14"/><rect x="27.103" y="142.552" width="1.537" height="1.537" fill="#171a14"/><rect x="31.655" y="142.552" width="1.537" height="1.537" fill="#171a14"/><rect x="33.172" y="142.552" width="1.537" height="1.537" fill="#171a14"/><rect x="34.690" y="142.552" width="1.537" height="1.537" fill="#171a14"/><rect x="36.207" y="142.552" width="1.537" height="1.537" fill="#171a14"/><rect x="37.724" y="142.552" width="1.537" height="1.537" fill="#171a14"/><rect x="40.759" y="142.552" width="1.537" height="1.537" fill="#171a14"/><rect x="43.793" y="142.552" width="1.537" height="1.537" fill="#171a14"/><rect x="45.310" y="142.552" width="1.537" height="1.537" fill="#171a14"/><rect x="46.828" y="142.552" width="1.537" height="1.537" fill="#171a14"/><rect x="51.379" y="142.552" width="1.537" height="1.537" fill="#171a14"/><rect x="54.414" y="142.552" width="1.537" height="1.537" fill="#171a14"/><rect x="55.931" y="142.552" width="1.537" height="1.537" fill="#171a14"/><rect x="57.448" y="142.552" width="1.537" height="1.537" fill="#171a14"/><rect x="60.483" y="142.552" width="1.537" height="1.537" fill="#171a14"/><rect x="18.000" y="144.069" width="1.537" height="1.537" fill="#171a14"/><rect x="21.034" y="144.069" width="1.537" height="1.537" fill="#171a14"/><rect x="22.552" y="144.069" width="1.537" height="1.537" fill="#171a14"/><rect x="24.069" y="144.069" width="1.537" height="1.537" fill="#171a14"/><rect x="27.103" y="144.069" width="1.537" height="1.537" fill="#171a14"/><rect x="39.241" y="144.069" width="1.537" height="1.537" fill="#171a14"/><rect x="40.759" y="144.069" width="1.537" height="1.537" fill="#171a14"/><rect x="43.793" y="144.069" width="1.537" height="1.537" fill="#171a14"/><rect x="45.310" y="144.069" width="1.537" height="1.537" fill="#171a14"/><rect x="46.828" y="144.069" width="1.537" height="1.537" fill="#171a14"/><rect x="48.345" y="144.069" width="1.537" height="1.537" fill="#171a14"/><rect x="51.379" y="144.069" width="1.537" height="1.537" fill="#171a14"/><rect x="54.414" y="144.069" width="1.537" height="1.537" fill="#171a14"/><rect x="55.931" y="144.069" width="1.537" height="1.537" fill="#171a14"/><rect x="57.448" y="144.069" width="1.537" height="1.537" fill="#171a14"/><rect x="60.483" y="144.069" width="1.537" height="1.537" fill="#171a14"/><rect x="18.000" y="145.586" width="1.537" height="1.537" fill="#171a14"/><rect x="27.103" y="145.586" width="1.537" height="1.537" fill="#171a14"/><rect x="31.655" y="145.586" width="1.537" height="1.537" fill="#171a14"/><rect x="34.690" y="145.586" width="1.537" height="1.537" fill="#171a14"/><rect x="36.207" y="145.586" width="1.537" height="1.537" fill="#171a14"/><rect x="37.724" y="145.586" width="1.537" height="1.537" fill="#171a14"/><rect x="45.310" y="145.586" width="1.537" height="1.537" fill="#171a14"/><rect x="46.828" y="145.586" width="1.537" height="1.537" fill="#171a14"/><rect x="51.379" y="145.586" width="1.537" height="1.537" fill="#171a14"/><rect x="60.483" y="145.586" width="1.537" height="1.537" fill="#171a14"/><rect x="18.000" y="147.103" width="1.537" height="1.537" fill="#171a14"/><rect x="19.517" y="147.103" width="1.537" height="1.537" fill="#171a14"/><rect x="21.034" y="147.103" width="1.537" height="1.537" fill="#171a14"/><rect x="22.552" y="147.103" width="1.537" height="1.537" fill="#171a14"/><rect x="24.069" y="147.103" width="1.537" height="1.537" fill="#171a14"/><rect x="25.586" y="147.103" width="1.537" height="1.537" fill="#171a14"/><rect x="27.103" y="147.103" width="1.537" height="1.537" fill="#171a14"/><rect x="30.138" y="147.103" width="1.537" height="1.537" fill="#171a14"/><rect x="33.172" y="147.103" width="1.537" height="1.537" fill="#171a14"/><rect x="36.207" y="147.103" width="1.537" height="1.537" fill="#171a14"/><rect x="39.241" y="147.103" width="1.537" height="1.537" fill="#171a14"/><rect x="42.276" y="147.103" width="1.537" height="1.537" fill="#171a14"/><rect x="45.310" y="147.103" width="1.537" height="1.537" fill="#171a14"/><rect x="48.345" y="147.103" width="1.537" height="1.537" fill="#171a14"/><rect x="51.379" y="147.103" width="1.537" height="1.537" fill="#171a14"/><rect x="52.897" y="147.103" width="1.537" height="1.537" fill="#171a14"/><rect x="54.414" y="147.103" width="1.537" height="1.537" fill="#171a14"/><rect x="55.931" y="147.103" width="1.537" height="1.537" fill="#171a14"/><rect x="57.448" y="147.103" width="1.537" height="1.537" fill="#171a14"/><rect x="58.966" y="147.103" width="1.537" height="1.537" fill="#171a14"/><rect x="60.483" y="147.103" width="1.537" height="1.537" fill="#171a14"/><rect x="34.690" y="148.621" width="1.537" height="1.537" fill="#171a14"/><rect x="37.724" y="148.621" width="1.537" height="1.537" fill="#171a14"/><rect x="40.759" y="148.621" width="1.537" height="1.537" fill="#171a14"/><rect x="45.310" y="148.621" width="1.537" height="1.537" fill="#171a14"/><rect x="48.345" y="148.621" width="1.537" height="1.537" fill="#171a14"/><rect x="19.517" y="150.138" width="1.537" height="1.537" fill="#171a14"/><rect x="27.103" y="150.138" width="1.537" height="1.537" fill="#171a14"/><rect x="28.621" y="150.138" width="1.537" height="1.537" fill="#171a14"/><rect x="30.138" y="150.138" width="1.537" height="1.537" fill="#171a14"/><rect x="33.172" y="150.138" width="1.537" height="1.537" fill="#171a14"/><rect x="36.207" y="150.138" width="1.537" height="1.537" fill="#171a14"/><rect x="37.724" y="150.138" width="1.537" height="1.537" fill="#171a14"/><rect x="39.241" y="150.138" width="1.537" height="1.537" fill="#171a14"/><rect x="40.759" y="150.138" width="1.537" height="1.537" fill="#171a14"/><rect x="45.310" y="150.138" width="1.537" height="1.537" fill="#171a14"/><rect x="46.828" y="150.138" width="1.537" height="1.537" fill="#171a14"/><rect x="49.862" y="150.138" width="1.537" height="1.537" fill="#171a14"/><rect x="58.966" y="150.138" width="1.537" height="1.537" fill="#171a14"/><rect x="60.483" y="150.138" width="1.537" height="1.537" fill="#171a14"/><rect x="18.000" y="151.655" width="1.537" height="1.537" fill="#171a14"/><rect x="21.034" y="151.655" width="1.537" height="1.537" fill="#171a14"/><rect x="22.552" y="151.655" width="1.537" height="1.537" fill="#171a14"/><rect x="28.621" y="151.655" width="1.537" height="1.537" fill="#171a14"/><rect x="31.655" y="151.655" width="1.537" height="1.537" fill="#171a14"/><rect x="33.172" y="151.655" width="1.537" height="1.537" fill="#171a14"/><rect x="34.690" y="151.655" width="1.537" height="1.537" fill="#171a14"/><rect x="37.724" y="151.655" width="1.537" height="1.537" fill="#171a14"/><rect x="40.759" y="151.655" width="1.537" height="1.537" fill="#171a14"/><rect x="42.276" y="151.655" width="1.537" height="1.537" fill="#171a14"/><rect x="43.793" y="151.655" width="1.537" height="1.537" fill="#171a14"/><rect x="45.310" y="151.655" width="1.537" height="1.537" fill="#171a14"/><rect x="46.828" y="151.655" width="1.537" height="1.537" fill="#171a14"/><rect x="48.345" y="151.655" width="1.537" height="1.537" fill="#171a14"/><rect x="52.897" y="151.655" width="1.537" height="1.537" fill="#171a14"/><rect x="55.931" y="151.655" width="1.537" height="1.537" fill="#171a14"/><rect x="18.000" y="153.172" width="1.537" height="1.537" fill="#171a14"/><rect x="19.517" y="153.172" width="1.537" height="1.537" fill="#171a14"/><rect x="21.034" y="153.172" width="1.537" height="1.537" fill="#171a14"/><rect x="24.069" y="153.172" width="1.537" height="1.537" fill="#171a14"/><rect x="27.103" y="153.172" width="1.537" height="1.537" fill="#171a14"/><rect x="36.207" y="153.172" width="1.537" height="1.537" fill="#171a14"/><rect x="40.759" y="153.172" width="1.537" height="1.537" fill="#171a14"/><rect x="43.793" y="153.172" width="1.537" height="1.537" fill="#171a14"/><rect x="45.310" y="153.172" width="1.537" height="1.537" fill="#171a14"/><rect x="48.345" y="153.172" width="1.537" height="1.537" fill="#171a14"/><rect x="49.862" y="153.172" width="1.537" height="1.537" fill="#171a14"/><rect x="54.414" y="153.172" width="1.537" height="1.537" fill="#171a14"/><rect x="57.448" y="153.172" width="1.537" height="1.537" fill="#171a14"/><rect x="58.966" y="153.172" width="1.537" height="1.537" fill="#171a14"/><rect x="60.483" y="153.172" width="1.537" height="1.537" fill="#171a14"/><rect x="18.000" y="154.690" width="1.537" height="1.537" fill="#171a14"/><rect x="22.552" y="154.690" width="1.537" height="1.537" fill="#171a14"/><rect x="25.586" y="154.690" width="1.537" height="1.537" fill="#171a14"/><rect x="30.138" y="154.690" width="1.537" height="1.537" fill="#171a14"/><rect x="31.655" y="154.690" width="1.537" height="1.537" fill="#171a14"/><rect x="33.172" y="154.690" width="1.537" height="1.537" fill="#171a14"/><rect x="36.207" y="154.690" width="1.537" height="1.537" fill="#171a14"/><rect x="37.724" y="154.690" width="1.537" height="1.537" fill="#171a14"/><rect x="43.793" y="154.690" width="1.537" height="1.537" fill="#171a14"/><rect x="46.828" y="154.690" width="1.537" height="1.537" fill="#171a14"/><rect x="49.862" y="154.690" width="1.537" height="1.537" fill="#171a14"/><rect x="51.379" y="154.690" width="1.537" height="1.537" fill="#171a14"/><rect x="52.897" y="154.690" width="1.537" height="1.537" fill="#171a14"/><rect x="55.931" y="154.690" width="1.537" height="1.537" fill="#171a14"/><rect x="57.448" y="154.690" width="1.537" height="1.537" fill="#171a14"/><rect x="58.966" y="154.690" width="1.537" height="1.537" fill="#171a14"/><rect x="18.000" y="156.207" width="1.537" height="1.537" fill="#171a14"/><rect x="22.552" y="156.207" width="1.537" height="1.537" fill="#171a14"/><rect x="24.069" y="156.207" width="1.537" height="1.537" fill="#171a14"/><rect x="27.103" y="156.207" width="1.537" height="1.537" fill="#171a14"/><rect x="28.621" y="156.207" width="1.537" height="1.537" fill="#171a14"/><rect x="33.172" y="156.207" width="1.537" height="1.537" fill="#171a14"/><rect x="34.690" y="156.207" width="1.537" height="1.537" fill="#171a14"/><rect x="36.207" y="156.207" width="1.537" height="1.537" fill="#171a14"/><rect x="37.724" y="156.207" width="1.537" height="1.537" fill="#171a14"/><rect x="39.241" y="156.207" width="1.537" height="1.537" fill="#171a14"/><rect x="43.793" y="156.207" width="1.537" height="1.537" fill="#171a14"/><rect x="45.310" y="156.207" width="1.537" height="1.537" fill="#171a14"/><rect x="46.828" y="156.207" width="1.537" height="1.537" fill="#171a14"/><rect x="49.862" y="156.207" width="1.537" height="1.537" fill="#171a14"/><rect x="54.414" y="156.207" width="1.537" height="1.537" fill="#171a14"/><rect x="58.966" y="156.207" width="1.537" height="1.537" fill="#171a14"/><rect x="60.483" y="156.207" width="1.537" height="1.537" fill="#171a14"/><rect x="18.000" y="157.724" width="1.537" height="1.537" fill="#171a14"/><rect x="19.517" y="157.724" width="1.537" height="1.537" fill="#171a14"/><rect x="21.034" y="157.724" width="1.537" height="1.537" fill="#171a14"/><rect x="22.552" y="157.724" width="1.537" height="1.537" fill="#171a14"/><rect x="24.069" y="157.724" width="1.537" height="1.537" fill="#171a14"/><rect x="25.586" y="157.724" width="1.537" height="1.537" fill="#171a14"/><rect x="28.621" y="157.724" width="1.537" height="1.537" fill="#171a14"/><rect x="30.138" y="157.724" width="1.537" height="1.537" fill="#171a14"/><rect x="33.172" y="157.724" width="1.537" height="1.537" fill="#171a14"/><rect x="40.759" y="157.724" width="1.537" height="1.537" fill="#171a14"/><rect x="42.276" y="157.724" width="1.537" height="1.537" fill="#171a14"/><rect x="45.310" y="157.724" width="1.537" height="1.537" fill="#171a14"/><rect x="46.828" y="157.724" width="1.537" height="1.537" fill="#171a14"/><rect x="48.345" y="157.724" width="1.537" height="1.537" fill="#171a14"/><rect x="49.862" y="157.724" width="1.537" height="1.537" fill="#171a14"/><rect x="51.379" y="157.724" width="1.537" height="1.537" fill="#171a14"/><rect x="52.897" y="157.724" width="1.537" height="1.537" fill="#171a14"/><rect x="57.448" y="157.724" width="1.537" height="1.537" fill="#171a14"/><rect x="18.000" y="159.241" width="1.537" height="1.537" fill="#171a14"/><rect x="25.586" y="159.241" width="1.537" height="1.537" fill="#171a14"/><rect x="27.103" y="159.241" width="1.537" height="1.537" fill="#171a14"/><rect x="31.655" y="159.241" width="1.537" height="1.537" fill="#171a14"/><rect x="37.724" y="159.241" width="1.537" height="1.537" fill="#171a14"/><rect x="45.310" y="159.241" width="1.537" height="1.537" fill="#171a14"/><rect x="49.862" y="159.241" width="1.537" height="1.537" fill="#171a14"/><rect x="52.897" y="159.241" width="1.537" height="1.537" fill="#171a14"/><rect x="54.414" y="159.241" width="1.537" height="1.537" fill="#171a14"/><rect x="57.448" y="159.241" width="1.537" height="1.537" fill="#171a14"/><rect x="19.517" y="160.759" width="1.537" height="1.537" fill="#171a14"/><rect x="24.069" y="160.759" width="1.537" height="1.537" fill="#171a14"/><rect x="25.586" y="160.759" width="1.537" height="1.537" fill="#171a14"/><rect x="28.621" y="160.759" width="1.537" height="1.537" fill="#171a14"/><rect x="30.138" y="160.759" width="1.537" height="1.537" fill="#171a14"/><rect x="31.655" y="160.759" width="1.537" height="1.537" fill="#171a14"/><rect x="33.172" y="160.759" width="1.537" height="1.537" fill="#171a14"/><rect x="36.207" y="160.759" width="1.537" height="1.537" fill="#171a14"/><rect x="40.759" y="160.759" width="1.537" height="1.537" fill="#171a14"/><rect x="45.310" y="160.759" width="1.537" height="1.537" fill="#171a14"/><rect x="46.828" y="160.759" width="1.537" height="1.537" fill="#171a14"/><rect x="48.345" y="160.759" width="1.537" height="1.537" fill="#171a14"/><rect x="52.897" y="160.759" width="1.537" height="1.537" fill="#171a14"/><rect x="55.931" y="160.759" width="1.537" height="1.537" fill="#171a14"/><rect x="57.448" y="160.759" width="1.537" height="1.537" fill="#171a14"/><rect x="60.483" y="160.759" width="1.537" height="1.537" fill="#171a14"/><rect x="18.000" y="162.276" width="1.537" height="1.537" fill="#171a14"/><rect x="19.517" y="162.276" width="1.537" height="1.537" fill="#171a14"/><rect x="21.034" y="162.276" width="1.537" height="1.537" fill="#171a14"/><rect x="22.552" y="162.276" width="1.537" height="1.537" fill="#171a14"/><rect x="24.069" y="162.276" width="1.537" height="1.537" fill="#171a14"/><rect x="27.103" y="162.276" width="1.537" height="1.537" fill="#171a14"/><rect x="28.621" y="162.276" width="1.537" height="1.537" fill="#171a14"/><rect x="33.172" y="162.276" width="1.537" height="1.537" fill="#171a14"/><rect x="36.207" y="162.276" width="1.537" height="1.537" fill="#171a14"/><rect x="39.241" y="162.276" width="1.537" height="1.537" fill="#171a14"/><rect x="40.759" y="162.276" width="1.537" height="1.537" fill="#171a14"/><rect x="42.276" y="162.276" width="1.537" height="1.537" fill="#171a14"/><rect x="45.310" y="162.276" width="1.537" height="1.537" fill="#171a14"/><rect x="46.828" y="162.276" width="1.537" height="1.537" fill="#171a14"/><rect x="48.345" y="162.276" width="1.537" height="1.537" fill="#171a14"/><rect x="52.897" y="162.276" width="1.537" height="1.537" fill="#171a14"/><rect x="54.414" y="162.276" width="1.537" height="1.537" fill="#171a14"/><rect x="57.448" y="162.276" width="1.537" height="1.537" fill="#171a14"/><rect x="18.000" y="163.793" width="1.537" height="1.537" fill="#171a14"/><rect x="19.517" y="163.793" width="1.537" height="1.537" fill="#171a14"/><rect x="22.552" y="163.793" width="1.537" height="1.537" fill="#171a14"/><rect x="31.655" y="163.793" width="1.537" height="1.537" fill="#171a14"/><rect x="34.690" y="163.793" width="1.537" height="1.537" fill="#171a14"/><rect x="36.207" y="163.793" width="1.537" height="1.537" fill="#171a14"/><rect x="39.241" y="163.793" width="1.537" height="1.537" fill="#171a14"/><rect x="45.310" y="163.793" width="1.537" height="1.537" fill="#171a14"/><rect x="46.828" y="163.793" width="1.537" height="1.537" fill="#171a14"/><rect x="49.862" y="163.793" width="1.537" height="1.537" fill="#171a14"/><rect x="55.931" y="163.793" width="1.537" height="1.537" fill="#171a14"/><rect x="58.966" y="163.793" width="1.537" height="1.537" fill="#171a14"/><rect x="60.483" y="163.793" width="1.537" height="1.537" fill="#171a14"/><rect x="18.000" y="165.310" width="1.537" height="1.537" fill="#171a14"/><rect x="19.517" y="165.310" width="1.537" height="1.537" fill="#171a14"/><rect x="22.552" y="165.310" width="1.537" height="1.537" fill="#171a14"/><rect x="27.103" y="165.310" width="1.537" height="1.537" fill="#171a14"/><rect x="30.138" y="165.310" width="1.537" height="1.537" fill="#171a14"/><rect x="33.172" y="165.310" width="1.537" height="1.537" fill="#171a14"/><rect x="34.690" y="165.310" width="1.537" height="1.537" fill="#171a14"/><rect x="36.207" y="165.310" width="1.537" height="1.537" fill="#171a14"/><rect x="39.241" y="165.310" width="1.537" height="1.537" fill="#171a14"/><rect x="40.759" y="165.310" width="1.537" height="1.537" fill="#171a14"/><rect x="43.793" y="165.310" width="1.537" height="1.537" fill="#171a14"/><rect x="48.345" y="165.310" width="1.537" height="1.537" fill="#171a14"/><rect x="54.414" y="165.310" width="1.537" height="1.537" fill="#171a14"/><rect x="57.448" y="165.310" width="1.537" height="1.537" fill="#171a14"/><rect x="58.966" y="165.310" width="1.537" height="1.537" fill="#171a14"/><rect x="18.000" y="166.828" width="1.537" height="1.537" fill="#171a14"/><rect x="22.552" y="166.828" width="1.537" height="1.537" fill="#171a14"/><rect x="25.586" y="166.828" width="1.537" height="1.537" fill="#171a14"/><rect x="28.621" y="166.828" width="1.537" height="1.537" fill="#171a14"/><rect x="30.138" y="166.828" width="1.537" height="1.537" fill="#171a14"/><rect x="33.172" y="166.828" width="1.537" height="1.537" fill="#171a14"/><rect x="37.724" y="166.828" width="1.537" height="1.537" fill="#171a14"/><rect x="46.828" y="166.828" width="1.537" height="1.537" fill="#171a14"/><rect x="48.345" y="166.828" width="1.537" height="1.537" fill="#171a14"/><rect x="49.862" y="166.828" width="1.537" height="1.537" fill="#171a14"/><rect x="51.379" y="166.828" width="1.537" height="1.537" fill="#171a14"/><rect x="52.897" y="166.828" width="1.537" height="1.537" fill="#171a14"/><rect x="54.414" y="166.828" width="1.537" height="1.537" fill="#171a14"/><rect x="55.931" y="166.828" width="1.537" height="1.537" fill="#171a14"/><rect x="57.448" y="166.828" width="1.537" height="1.537" fill="#171a14"/><rect x="58.966" y="166.828" width="1.537" height="1.537" fill="#171a14"/><rect x="18.000" y="168.345" width="1.537" height="1.537" fill="#171a14"/><rect x="21.034" y="168.345" width="1.537" height="1.537" fill="#171a14"/><rect x="22.552" y="168.345" width="1.537" height="1.537" fill="#171a14"/><rect x="24.069" y="168.345" width="1.537" height="1.537" fill="#171a14"/><rect x="27.103" y="168.345" width="1.537" height="1.537" fill="#171a14"/><rect x="28.621" y="168.345" width="1.537" height="1.537" fill="#171a14"/><rect x="30.138" y="168.345" width="1.537" height="1.537" fill="#171a14"/><rect x="31.655" y="168.345" width="1.537" height="1.537" fill="#171a14"/><rect x="34.690" y="168.345" width="1.537" height="1.537" fill="#171a14"/><rect x="40.759" y="168.345" width="1.537" height="1.537" fill="#171a14"/><rect x="42.276" y="168.345" width="1.537" height="1.537" fill="#171a14"/><rect x="45.310" y="168.345" width="1.537" height="1.537" fill="#171a14"/><rect x="48.345" y="168.345" width="1.537" height="1.537" fill="#171a14"/><rect x="49.862" y="168.345" width="1.537" height="1.537" fill="#171a14"/><rect x="51.379" y="168.345" width="1.537" height="1.537" fill="#171a14"/><rect x="52.897" y="168.345" width="1.537" height="1.537" fill="#171a14"/><rect x="54.414" y="168.345" width="1.537" height="1.537" fill="#171a14"/><rect x="30.138" y="169.862" width="1.537" height="1.537" fill="#171a14"/><rect x="34.690" y="169.862" width="1.537" height="1.537" fill="#171a14"/><rect x="36.207" y="169.862" width="1.537" height="1.537" fill="#171a14"/><rect x="37.724" y="169.862" width="1.537" height="1.537" fill="#171a14"/><rect x="39.241" y="169.862" width="1.537" height="1.537" fill="#171a14"/><rect x="40.759" y="169.862" width="1.537" height="1.537" fill="#171a14"/><rect x="42.276" y="169.862" width="1.537" height="1.537" fill="#171a14"/><rect x="45.310" y="169.862" width="1.537" height="1.537" fill="#171a14"/><rect x="48.345" y="169.862" width="1.537" height="1.537" fill="#171a14"/><rect x="54.414" y="169.862" width="1.537" height="1.537" fill="#171a14"/><rect x="55.931" y="169.862" width="1.537" height="1.537" fill="#171a14"/><rect x="57.448" y="169.862" width="1.537" height="1.537" fill="#171a14"/><rect x="58.966" y="169.862" width="1.537" height="1.537" fill="#171a14"/><rect x="18.000" y="171.379" width="1.537" height="1.537" fill="#171a14"/><rect x="19.517" y="171.379" width="1.537" height="1.537" fill="#171a14"/><rect x="21.034" y="171.379" width="1.537" height="1.537" fill="#171a14"/><rect x="22.552" y="171.379" width="1.537" height="1.537" fill="#171a14"/><rect x="24.069" y="171.379" width="1.537" height="1.537" fill="#171a14"/><rect x="25.586" y="171.379" width="1.537" height="1.537" fill="#171a14"/><rect x="27.103" y="171.379" width="1.537" height="1.537" fill="#171a14"/><rect x="30.138" y="171.379" width="1.537" height="1.537" fill="#171a14"/><rect x="33.172" y="171.379" width="1.537" height="1.537" fill="#171a14"/><rect x="36.207" y="171.379" width="1.537" height="1.537" fill="#171a14"/><rect x="48.345" y="171.379" width="1.537" height="1.537" fill="#171a14"/><rect x="51.379" y="171.379" width="1.537" height="1.537" fill="#171a14"/><rect x="54.414" y="171.379" width="1.537" height="1.537" fill="#171a14"/><rect x="55.931" y="171.379" width="1.537" height="1.537" fill="#171a14"/><rect x="18.000" y="172.897" width="1.537" height="1.537" fill="#171a14"/><rect x="27.103" y="172.897" width="1.537" height="1.537" fill="#171a14"/><rect x="31.655" y="172.897" width="1.537" height="1.537" fill="#171a14"/><rect x="33.172" y="172.897" width="1.537" height="1.537" fill="#171a14"/><rect x="36.207" y="172.897" width="1.537" height="1.537" fill="#171a14"/><rect x="37.724" y="172.897" width="1.537" height="1.537" fill="#171a14"/><rect x="40.759" y="172.897" width="1.537" height="1.537" fill="#171a14"/><rect x="45.310" y="172.897" width="1.537" height="1.537" fill="#171a14"/><rect x="46.828" y="172.897" width="1.537" height="1.537" fill="#171a14"/><rect x="48.345" y="172.897" width="1.537" height="1.537" fill="#171a14"/><rect x="54.414" y="172.897" width="1.537" height="1.537" fill="#171a14"/><rect x="55.931" y="172.897" width="1.537" height="1.537" fill="#171a14"/><rect x="58.966" y="172.897" width="1.537" height="1.537" fill="#171a14"/><rect x="60.483" y="172.897" width="1.537" height="1.537" fill="#171a14"/><rect x="18.000" y="174.414" width="1.537" height="1.537" fill="#171a14"/><rect x="21.034" y="174.414" width="1.537" height="1.537" fill="#171a14"/><rect x="22.552" y="174.414" width="1.537" height="1.537" fill="#171a14"/><rect x="24.069" y="174.414" width="1.537" height="1.537" fill="#171a14"/><rect x="27.103" y="174.414" width="1.537" height="1.537" fill="#171a14"/><rect x="33.172" y="174.414" width="1.537" height="1.537" fill="#171a14"/><rect x="39.241" y="174.414" width="1.537" height="1.537" fill="#171a14"/><rect x="42.276" y="174.414" width="1.537" height="1.537" fill="#171a14"/><rect x="43.793" y="174.414" width="1.537" height="1.537" fill="#171a14"/><rect x="45.310" y="174.414" width="1.537" height="1.537" fill="#171a14"/><rect x="48.345" y="174.414" width="1.537" height="1.537" fill="#171a14"/><rect x="49.862" y="174.414" width="1.537" height="1.537" fill="#171a14"/><rect x="51.379" y="174.414" width="1.537" height="1.537" fill="#171a14"/><rect x="52.897" y="174.414" width="1.537" height="1.537" fill="#171a14"/><rect x="54.414" y="174.414" width="1.537" height="1.537" fill="#171a14"/><rect x="55.931" y="174.414" width="1.537" height="1.537" fill="#171a14"/><rect x="57.448" y="174.414" width="1.537" height="1.537" fill="#171a14"/><rect x="58.966" y="174.414" width="1.537" height="1.537" fill="#171a14"/><rect x="18.000" y="175.931" width="1.537" height="1.537" fill="#171a14"/><rect x="21.034" y="175.931" width="1.537" height="1.537" fill="#171a14"/><rect x="22.552" y="175.931" width="1.537" height="1.537" fill="#171a14"/><rect x="24.069" y="175.931" width="1.537" height="1.537" fill="#171a14"/><rect x="27.103" y="175.931" width="1.537" height="1.537" fill="#171a14"/><rect x="34.690" y="175.931" width="1.537" height="1.537" fill="#171a14"/><rect x="36.207" y="175.931" width="1.537" height="1.537" fill="#171a14"/><rect x="39.241" y="175.931" width="1.537" height="1.537" fill="#171a14"/><rect x="42.276" y="175.931" width="1.537" height="1.537" fill="#171a14"/><rect x="43.793" y="175.931" width="1.537" height="1.537" fill="#171a14"/><rect x="45.310" y="175.931" width="1.537" height="1.537" fill="#171a14"/><rect x="46.828" y="175.931" width="1.537" height="1.537" fill="#171a14"/><rect x="48.345" y="175.931" width="1.537" height="1.537" fill="#171a14"/><rect x="52.897" y="175.931" width="1.537" height="1.537" fill="#171a14"/><rect x="57.448" y="175.931" width="1.537" height="1.537" fill="#171a14"/><rect x="58.966" y="175.931" width="1.537" height="1.537" fill="#171a14"/><rect x="18.000" y="177.448" width="1.537" height="1.537" fill="#171a14"/><rect x="21.034" y="177.448" width="1.537" height="1.537" fill="#171a14"/><rect x="22.552" y="177.448" width="1.537" height="1.537" fill="#171a14"/><rect x="24.069" y="177.448" width="1.537" height="1.537" fill="#171a14"/><rect x="27.103" y="177.448" width="1.537" height="1.537" fill="#171a14"/><rect x="33.172" y="177.448" width="1.537" height="1.537" fill="#171a14"/><rect x="45.310" y="177.448" width="1.537" height="1.537" fill="#171a14"/><rect x="48.345" y="177.448" width="1.537" height="1.537" fill="#171a14"/><rect x="51.379" y="177.448" width="1.537" height="1.537" fill="#171a14"/><rect x="54.414" y="177.448" width="1.537" height="1.537" fill="#171a14"/><rect x="57.448" y="177.448" width="1.537" height="1.537" fill="#171a14"/><rect x="58.966" y="177.448" width="1.537" height="1.537" fill="#171a14"/><rect x="18.000" y="178.966" width="1.537" height="1.537" fill="#171a14"/><rect x="27.103" y="178.966" width="1.537" height="1.537" fill="#171a14"/><rect x="30.138" y="178.966" width="1.537" height="1.537" fill="#171a14"/><rect x="31.655" y="178.966" width="1.537" height="1.537" fill="#171a14"/><rect x="33.172" y="178.966" width="1.537" height="1.537" fill="#171a14"/><rect x="40.759" y="178.966" width="1.537" height="1.537" fill="#171a14"/><rect x="43.793" y="178.966" width="1.537" height="1.537" fill="#171a14"/><rect x="45.310" y="178.966" width="1.537" height="1.537" fill="#171a14"/><rect x="46.828" y="178.966" width="1.537" height="1.537" fill="#171a14"/><rect x="49.862" y="178.966" width="1.537" height="1.537" fill="#171a14"/><rect x="51.379" y="178.966" width="1.537" height="1.537" fill="#171a14"/><rect x="55.931" y="178.966" width="1.537" height="1.537" fill="#171a14"/><rect x="57.448" y="178.966" width="1.537" height="1.537" fill="#171a14"/><rect x="18.000" y="180.483" width="1.537" height="1.537" fill="#171a14"/><rect x="19.517" y="180.483" width="1.537" height="1.537" fill="#171a14"/><rect x="21.034" y="180.483" width="1.537" height="1.537" fill="#171a14"/><rect x="22.552" y="180.483" width="1.537" height="1.537" fill="#171a14"/><rect x="24.069" y="180.483" width="1.537" height="1.537" fill="#171a14"/><rect x="25.586" y="180.483" width="1.537" height="1.537" fill="#171a14"/><rect x="27.103" y="180.483" width="1.537" height="1.537" fill="#171a14"/><rect x="31.655" y="180.483" width="1.537" height="1.537" fill="#171a14"/><rect x="34.690" y="180.483" width="1.537" height="1.537" fill="#171a14"/><rect x="45.310" y="180.483" width="1.537" height="1.537" fill="#171a14"/><rect x="46.828" y="180.483" width="1.537" height="1.537" fill="#171a14"/><rect x="51.379" y="180.483" width="1.537" height="1.537" fill="#171a14"/><rect x="52.897" y="180.483" width="1.537" height="1.537" fill="#171a14"/><rect x="54.414" y="180.483" width="1.537" height="1.537" fill="#171a14"/><rect x="58.966" y="180.483" width="1.537" height="1.537" fill="#171a14"/></g>
<circle cx="116" cy="161" r="15" fill="none" stroke="#171a14" stroke-width="0.5"/><g stroke="#171a14" stroke-width="0.5" stroke-linecap="round"><line x1="129.90" y1="161.00" x2="132.10" y2="161.00"/><line x1="129.76" y1="162.98" x2="131.94" y2="163.29"/><line x1="129.34" y1="164.92" x2="131.45" y2="165.54"/><line x1="128.64" y1="166.77" x2="130.65" y2="167.69"/><line x1="127.69" y1="168.51" x2="129.54" y2="169.70"/><line x1="126.50" y1="170.10" x2="128.17" y2="171.54"/><line x1="125.10" y1="171.50" x2="126.54" y2="173.17"/><line x1="123.51" y1="172.69" x2="124.70" y2="174.54"/><line x1="121.77" y1="173.64" x2="122.69" y2="175.65"/><line x1="119.92" y1="174.34" x2="120.54" y2="176.45"/><line x1="117.98" y1="174.76" x2="118.29" y2="176.94"/><line x1="116.00" y1="174.90" x2="116.00" y2="177.10"/><line x1="114.02" y1="174.76" x2="113.71" y2="176.94"/><line x1="112.08" y1="174.34" x2="111.46" y2="176.45"/><line x1="110.23" y1="173.64" x2="109.31" y2="175.65"/><line x1="108.49" y1="172.69" x2="107.30" y2="174.54"/><line x1="106.90" y1="171.50" x2="105.46" y2="173.17"/><line x1="105.50" y1="170.10" x2="103.83" y2="171.54"/><line x1="104.31" y1="168.51" x2="102.46" y2="169.70"/><line x1="103.36" y1="166.77" x2="101.35" y2="167.69"/><line x1="102.66" y1="164.92" x2="100.55" y2="165.54"/><line x1="102.24" y1="162.98" x2="100.06" y2="163.29"/><line x1="102.10" y1="161.00" x2="99.90" y2="161.00"/><line x1="102.24" y1="159.02" x2="100.06" y2="158.71"/><line x1="102.66" y1="157.08" x2="100.55" y2="156.46"/><line x1="103.36" y1="155.23" x2="101.35" y2="154.31"/><line x1="104.31" y1="153.49" x2="102.46" y2="152.30"/><line x1="105.50" y1="151.90" x2="103.83" y2="150.46"/><line x1="106.90" y1="150.50" x2="105.46" y2="148.83"/><line x1="108.49" y1="149.31" x2="107.30" y2="147.46"/><line x1="110.23" y1="148.36" x2="109.31" y2="146.35"/><line x1="112.08" y1="147.66" x2="111.46" y2="145.55"/><line x1="114.02" y1="147.24" x2="113.71" y2="145.06"/><line x1="116.00" y1="147.10" x2="116.00" y2="144.90"/><line x1="117.98" y1="147.24" x2="118.29" y2="145.06"/><line x1="119.92" y1="147.66" x2="120.54" y2="145.55"/><line x1="121.77" y1="148.36" x2="122.69" y2="146.35"/><line x1="123.51" y1="149.31" x2="124.70" y2="147.46"/><line x1="125.10" y1="150.50" x2="126.54" y2="148.83"/><line x1="126.50" y1="151.90" x2="128.17" y2="150.46"/><line x1="127.69" y1="153.49" x2="129.54" y2="152.30"/><line x1="128.64" y1="155.23" x2="130.65" y2="154.31"/><line x1="129.34" y1="157.08" x2="131.45" y2="156.46"/><line x1="129.76" y1="159.02" x2="131.94" y2="158.71"/></g><text x="116" y="164.9" font-family="Fraunces" font-weight="600" font-size="11.5" text-anchor="middle" fill="#171a14">40</text>
<text x="80" y="153" font-family="IBM Plex Mono" font-size="2.8" letter-spacing="1.1" text-anchor="middle" fill="#5f5f54">SCAN TO</text>
<text x="80" y="158" font-family="IBM Plex Mono" font-size="2.8" letter-spacing="1.1" text-anchor="middle" fill="#5f5f54">VERIFY</text>
<text x="80" y="163" font-family="IBM Plex Mono" font-size="2.8" letter-spacing="1.1" text-anchor="middle" fill="#5f5f54">TITLE</text>
<text x="75.0" y="187.5" font-family="IBM Plex Mono" font-size="2.35" letter-spacing="0.42" text-anchor="middle" fill="#5f5f54">RETURN ON DEMAND · NOT FOR RESALE · LEASE-A-FLEECE.COM</text>
</g>
<text x="105.0" y="264.5" font-family="IBM Plex Mono" font-size="3" letter-spacing="0.6" text-anchor="middle" fill="#5f5f54">PRINT AT 100% — DO NOT SCALE TO FIT. PATCH MEASURES 150 × 200 MM.</text>
<text x="105.0" y="270.5" font-family="IBM Plex Mono" font-size="3" letter-spacing="0.6" text-anchor="middle" fill="#5f5f54">CUT ON THE SOLID EDGE · SEW ON THE DASHED LINE · UNIT: FJORD</text>
</svg>