<svg xmlns="http://www.w3.org/2000/svg" width="150.0mm" height="200.0mm" viewBox="0 0 150.0 200.0">
<rect width="150.0" height="200.0" fill="#f4f1ea"/>
<rect x="0.6" y="0.6" width="148.8" height="198.8" rx="7" fill="none" stroke="#171a14" stroke-width="0.9"/>
<rect x="7" y="7" width="136.0" height="186.0" rx="4" fill="none" stroke="#171a14" stroke-width="0.3"
 stroke-dasharray="1.6 2.4" opacity="0.55"/>
<g fill="none" stroke="#171a14" stroke-width="15" transform="translate(63.0,17) scale(0.08)"><path d="M 52 74 Q 52 52 74 52 H 164 Q 248 52 248 136 V 226 Q 248 248 226 248 H 74 Q 52 248 52 226 Z" stroke-linejoin="round"/><path d="M 164 52 Q 164 136 248 136" stroke-linecap="round"/><path d="M 82 84 H 152 M 82 84 V 218 M 82 218 H 218 M 218 218 V 158" stroke-linecap="round" stroke-dasharray="1 22" stroke-width="9"/></g>
<text x="75.0" y="53.5" font-family="Fraunces" font-weight="600" font-size="13.5" text-anchor="middle" fill="#171a14">Lease-a-Fleece</text>
<text x="75.0" y="60.5" font-family="IBM Plex Mono" font-size="3.1" letter-spacing="1.5" text-anchor="middle" fill="#5f5f54">EST. 1986 · AMSTERDAM</text>
<line x1="18" y1="70" x2="132" y2="70" stroke="#171a14" stroke-width="0.35"/>
<text x="75.0" y="81" font-family="IBM Plex Mono" font-size="3.3" letter-spacing="2.2" text-anchor="middle" fill="#5f5f54">PROPERTY OF</text>
<text x="75.0" y="93.5" font-family="Fraunces" font-weight="600" font-size="10.5" text-anchor="middle" fill="#171a14">Lease-a-Fleece B.V.</text>
<line x1="18" y1="101" x2="132" y2="101" stroke="#171a14" stroke-width="0.35"/>
<text x="18" y="108.0" font-family="IBM Plex Mono" font-size="3.1" letter-spacing="0.35" fill="#5f5f54">LESSEE</text><text x="132" y="108.0" font-family="IBM Plex Mono" font-weight="500" font-size="3.1" letter-spacing="0.2" text-anchor="end" fill="#171a14">JARNO OLIJVE</text><line x1="18" y1="109.9" x2="132" y2="109.9" stroke="#171a14" stroke-width="0.12" opacity="0.35"/><text x="18" y="113.6" font-family="IBM Plex Mono" font-size="3.1" letter-spacing="0.35" fill="#5f5f54">LESSEE AGE</text><text x="132" y="113.6" font-family="IBM Plex Mono" font-weight="500" font-size="3.1" letter-spacing="0.2" text-anchor="end" fill="#171a14">40 YEARS</text><line x1="18" y1="115.5" x2="132" y2="115.5" stroke="#171a14" stroke-width="0.12" opacity="0.35"/><text x="18" y="119.2" font-family="IBM Plex Mono" font-size="3.1" letter-spacing="0.35" fill="#5f5f54">UNIT</text><text x="132" y="119.2" font-family="IBM Plex Mono" font-weight="500" font-size="3.1" letter-spacing="0.2" text-anchor="end" fill="#171a14">LAF-U-002 · AURORA</text><line x1="18" y1="121.10000000000001" x2="132" y2="121.10000000000001" stroke="#171a14" stroke-width="0.12" opacity="0.35"/><text x="18" y="124.8" font-family="IBM Plex Mono" font-size="3.1" letter-spacing="0.35" fill="#5f5f54">COLOURWAY</text><text x="132" y="124.8" font-family="IBM Plex Mono" font-weight="500" font-size="3.1" letter-spacing="0.2" text-anchor="end" fill="#171a14">IVORY</text><line x1="18" y1="126.7" x2="132" y2="126.7" stroke="#171a14" stroke-width="0.12" opacity="0.35"/><text x="18" y="130.4" font-family="IBM Plex Mono" font-size="3.1" letter-spacing="0.35" fill="#5f5f54">TERM</text><text x="132" y="130.4" font-family="IBM Plex Mono" font-weight="500" font-size="3.1" letter-spacing="0.2" text-anchor="end" fill="#171a14">PERPETUAL</text><line x1="18" y1="132.3" x2="132" y2="132.3" stroke="#171a14" stroke-width="0.12" opacity="0.35"/><text x="18" y="136.0" font-family="IBM Plex Mono" font-size="3.1" letter-spacing="0.35" fill="#5f5f54">CONDITION</text><text x="132" y="136.0" font-family="IBM Plex Mono" font-weight="500" font-size="3.1" letter-spacing="0.2" text-anchor="end" fill="#171a14">BOTH PARTIES SERVICEABLE</text>
<g shape-rendering="crispEdges"><rect x="18.000" y="141.000" width="1.620" height="1.620" fill="#171a14"/><rect x="19.600" y="141.000" width="1.620" height="1.620" fill="#171a14"/><rect x="21.200" y="141.000" width="1.620" height="1.620" fill="#171a14"/><rect x="22.800" y="141.000" width="1.620" height="1.620" fill="#171a14"/><rect x="24.400" y="141.000" width="1.620" height="1.620" fill="#171a14"/><rect x="26.000" y="141.000" width="1.620" height="1.620" fill="#171a14"/><rect x="27.600" y="141.000" width="1.620" height="1.620" fill="#171a14"/><rect x="32.400" y="141.000" width="1.620" height="1.620" fill="#171a14"/><rect x="40.400" y="141.000" width="1.620" height="1.620" fill="#171a14"/><rect x="42.000" y="141.000" width="1.620" height="1.620" fill="#171a14"/><rect x="46.800" y="141.000" width="1.620" height="1.620" fill="#171a14"/><rect x="48.400" y="141.000" width="1.620" height="1.620" fill="#171a14"/><rect x="50.000" y="141.000" width="1.620" height="1.620" fill="#171a14"/><rect x="51.600" y="141.000" width="1.620" height="1.620" fill="#171a14"/><rect x="53.200" y="141.000" width="1.620" height="1.620" fill="#171a14"/><rect x="54.800" y="141.000" width="1.620" height="1.620" fill="#171a14"/><rect x="56.400" y="141.000" width="1.620" height="1.620" fill="#171a14"/><rect x="18.000" y="142.600" width="1.620" height="1.620" fill="#171a14"/><rect x="27.600" y="142.600" width="1.620" height="1.620" fill="#171a14"/><rect x="30.800" y="142.600" width="1.620" height="1.620" fill="#171a14"/><rect x="35.600" y="142.600" width="1.620" height="1.620" fill="#171a14"/><rect x="46.800" y="142.600" width="1.620" height="1.620" fill="#171a14"/><rect x="56.400" y="142.600" width="1.620" height="1.620" fill="#171a14"/><rect x="18.000" y="144.200" width="1.620" height="1.620" fill="#171a14"/><rect x="21.200" y="144.200" width="1.620" height="1.620" fill="#171a14"/><rect x="22.800" y="144.200" width="1.620" height="1.620" fill="#171a14"/><rect x="24.400" y="144.200" width="1.620" height="1.620" fill="#171a14"/><rect x="27.600" y="144.200" width="1.620" height="1.620" fill="#171a14"/><rect x="32.400" y="144.200" width="1.620" height="1.620" fill="#171a14"/><rect x="34.000" y="144.200" width="1.620" height="1.620" fill="#171a14"/><rect x="35.600" y="144.200" width="1.620" height="1.620" fill="#171a14"/><rect x="37.200" y="144.200" width="1.620" height="1.620" fill="#171a14"/><rect x="38.800" y="144.200" width="1.620" height="1.620" fill="#171a14"/><rect x="42.000" y="144.200" width="1.620" height="1.620" fill="#171a14"/><rect x="46.800" y="144.200" width="1.620" height="1.620" fill="#171a14"/><rect x="50.000" y="144.200" width="1.620" height="1.620" fill="#171a14"/><rect x="51.600" y="144.200" width="1.620" height="1.620" fill="#171a14"/><rect x="53.200" y="144.200" width="1.620" height="1.620" fill="#171a14"/><rect x="56.400" y="144.200" width="1.620" height="1.620" fill="#171a14"/><rect x="18.000" y="145.800" width="1.620" height="1.620" fill="#171a14"/><rect x="21.200" y="145.800" width="1.620" height="1.620" fill="#171a14"/><rect x="22.800" y="145.800" width="1.620" height="1.620" fill="#171a14"/><rect x="24.400" y="145.800" width="1.620" height="1.620" fill="#171a14"/><rect x="27.600" y="145.800" width="1.620" height="1.620" fill="#171a14"/><rect x="30.800" y="145.800" width="1.620" height="1.620" fill="#171a14"/><rect x="32.400" y="145.800" width="1.620" height="1.620" fill="#171a14"/><rect x="34.000" y="145.800" width="1.620" height="1.620" fill="#171a14"/><rect x="37.200" y="145.800" width="1.620" height="1.620" fill="#171a14"/><rect x="40.400" y="145.800" width="1.620" height="1.620" fill="#171a14"/><rect x="46.800" y="145.800" width="1.620" height="1.620" fill="#171a14"/><rect x="50.000" y="145.800" width="1.620" height="1.620" fill="#171a14"/><rect x="51.600" y="145.800" width="1.620" height="1.620" fill="#171a14"/><rect x="53.200" y="145.800" width="1.620" height="1.620" fill="#171a14"/><rect x="56.400" y="145.800" width="1.620" height="1.620" fill="#171a14"/><rect x="18.000" y="147.400" width="1.620" height="1.620" fill="#171a14"/><rect x="21.200" y="147.400" width="1.620" height="1.620" fill="#171a14"/><rect x="22.800" y="147.400" width="1.620" height="1.620" fill="#171a14"/><rect x="24.400" y="147.400" width="1.620" height="1.620" fill="#171a14"/><rect x="27.600" y="147.400" width="1.620" height="1.620" fill="#171a14"/><rect x="30.800" y="147.400" width="1.620" height="1.620" fill="#171a14"/><rect x="34.000" y="147.400" width="1.620" height="1.620" fill="#171a14"/><rect x="37.200" y="147.400" width="1.620" height="1.620" fill="#171a14"/><rect x="38.800" y="147.400" width="1.620" height="1.620" fill="#171a14"/><rect x="40.400" y="147.400" width="1.620" height="1.620" fill="#171a14"/><rect x="43.600" y="147.400" width="1.620" height="1.620" fill="#171a14"/><rect x="46.800" y="147.400" width="1.620" height="1.620" fill="#171a14"/><rect x="50.000" y="147.400" width="1.620" height="1.620" fill="#171a14"/><rect x="51.600" y="147.400" width="1.620" height="1.620" fill="#171a14"/><rect x="53.200" y="147.400" width="1.620" height="1.620" fill="#171a14"/><rect x="56.400" y="147.400" width="1.620" height="1.620" fill="#171a14"/><rect x="18.000" y="149.000" width="1.620" height="1.620" fill="#171a14"/><rect x="27.600" y="149.000" width="1.620" height="1.620" fill="#171a14"/><rect x="34.000" y="149.000" width="1.620" height="1.620" fill="#171a14"/><rect x="35.600" y="149.000" width="1.620" height="1.620" fill="#171a14"/><rect x="38.800" y="149.000" width="1.620" height="1.620" fill="#171a14"/><rect x="40.400" y="149.000" width="1.620" height="1.620" fill="#171a14"/><rect x="46.800" y="149.000" width="1.620" height="1.620" fill="#171a14"/><rect x="56.400" y="149.000" width="1.620" height="1.620" fill="#171a14"/><rect x="18.000" y="150.600" width="1.620" height="1.620" fill="#171a14"/><rect x="19.600" y="150.600" width="1.620" height="1.620" fill="#171a14"/><rect x="21.200" y="150.600" width="1.620" height="1.620" fill="#171a14"/><rect x="22.800" y="150.600" width="1.620" height="1.620" fill="#171a14"/><rect x="24.400" y="150.600" width="1.620" height="1.620" fill="#171a14"/><rect x="26.000" y="150.600" width="1.620" height="1.620" fill="#171a14"/><rect x="27.600" y="150.600" width="1.620" height="1.620" fill="#171a14"/><rect x="30.800" y="150.600" width="1.620" height="1.620" fill="#171a14"/><rect x="34.000" y="150.600" width="1.620" height="1.620" fill="#171a14"/><rect x="37.200" y="150.600" width="1.620" height="1.620" fill="#171a14"/><rect x="40.400" y="150.600" width="1.620" height="1.620" fill="#171a14"/><rect x="43.600" y="150.600" width="1.620" height="1.620" fill="#171a14"/><rect x="46.800" y="150.600" width="1.620" height="1.620" fill="#171a14"/><rect x="48.400" y="150.600" width="1.620" height="1.620" fill="#171a14"/><rect x="50.000" y="150.600" width="1.620" height="1.620" fill="#171a14"/><rect x="51.600" y="150.600" width="1.620" height="1.620" fill="#171a14"/><rect x="53.200" y="150.600" width="1.620" height="1.620" fill="#171a14"/><rect x="54.800" y="150.600" width="1.620" height="1.620" fill="#171a14"/><rect x="56.400" y="150.600" width="1.620" height="1.620" fill="#171a14"/><rect x="30.800" y="152.200" width="1.620" height="1.620" fill="#171a14"/><rect x="35.600" y="152.200" width="1.620" height="1.620" fill="#171a14"/><rect x="37.200" y="152.200" width="1.620" height="1.620" fill="#171a14"/><rect x="40.400" y="152.200" width="1.620" height="1.620" fill="#171a14"/><rect x="42.000" y="152.200" width="1.620" height="1.620" fill="#171a14"/><rect x="19.600" y="153.800" width="1.620" height="1.620" fill="#171a14"/><rect x="22.800" y="153.800" width="1.620" height="1.620" fill="#171a14"/><rect x="24.400" y="153.800" width="1.620" height="1.620" fill="#171a14"/><rect x="26.000" y="153.800" width="1.620" height="1.620" fill="#171a14"/><rect x="27.600" y="153.800" width="1.620" height="1.620" fill="#171a14"/><rect x="30.800" y="153.800" width="1.620" height="1.620" fill="#171a14"/><rect x="32.400" y="153.800" width="1.620" height="1.620" fill="#171a14"/><rect x="34.000" y="153.800" width="1.620" height="1.620" fill="#171a14"/><rect x="35.600" y="153.800" width="1.620" height="1.620" fill="#171a14"/><rect x="37.200" y="153.800" width="1.620" height="1.620" fill="#171a14"/><rect x="38.800" y="153.800" width="1.620" height="1.620" fill="#171a14"/><rect x="40.400" y="153.800" width="1.620" height="1.620" fill="#171a14"/><rect x="45.200" y="153.800" width="1.620" height="1.620" fill="#171a14"/><rect x="46.800" y="153.800" width="1.620" height="1.620" fill="#171a14"/><rect x="50.000" y="153.800" width="1.620" height="1.620" fill="#171a14"/><rect x="51.600" y="153.800" width="1.620" height="1.620" fill="#171a14"/><rect x="54.800" y="153.800" width="1.620" height="1.620" fill="#171a14"/><rect x="18.000" y="155.400" width="1.620" height="1.620" fill="#171a14"/><rect x="21.200" y="155.400" width="1.620" height="1.620" fill="#171a14"/><rect x="22.800" y="155.400" width="1.620" height="1.620" fill="#171a14"/><rect x="29.200" y="155.400" width="1.620" height="1.620" fill="#171a14"/><rect x="30.800" y="155.400" width="1.620" height="1.620" fill="#171a14"/><rect x="35.600" y="155.400" width="1.620" height="1.620" fill="#171a14"/><rect x="40.400" y="155.400" width="1.620" height="1.620" fill="#171a14"/><rect x="42.000" y="155.400" width="1.620" height="1.620" fill="#171a14"/><rect x="43.600" y="155.400" width="1.620" height="1.620" fill="#171a14"/><rect x="45.200" y="155.400" width="1.620" height="1.620" fill="#171a14"/><rect x="48.400" y="155.400" width="1.620" height="1.620" fill="#171a14"/><rect x="50.000" y="155.400" width="1.620" height="1.620" fill="#171a14"/><rect x="51.600" y="155.400" width="1.620" height="1.620" fill="#171a14"/><rect x="53.200" y="155.400" width="1.620" height="1.620" fill="#171a14"/><rect x="19.600" y="157.000" width="1.620" height="1.620" fill="#171a14"/><rect x="21.200" y="157.000" width="1.620" height="1.620" fill="#171a14"/><rect x="24.400" y="157.000" width="1.620" height="1.620" fill="#171a14"/><rect x="27.600" y="157.000" width="1.620" height="1.620" fill="#171a14"/><rect x="30.800" y="157.000" width="1.620" height="1.620" fill="#171a14"/><rect x="34.000" y="157.000" width="1.620" height="1.620" fill="#171a14"/><rect x="40.400" y="157.000" width="1.620" height="1.620" fill="#171a14"/><rect x="56.400" y="157.000" width="1.620" height="1.620" fill="#171a14"/><rect x="24.400" y="158.600" width="1.620" height="1.620" fill="#171a14"/><rect x="26.000" y="158.600" width="1.620" height="1.620" fill="#171a14"/><rect x="30.800" y="158.600" width="1.620" height="1.620" fill="#171a14"/><rect x="34.000" y="158.600" width="1.620" height="1.620" fill="#171a14"/><rect x="37.200" y="158.600" width="1.620" height="1.620" fill="#171a14"/><rect x="40.400" y="158.600" width="1.620" height="1.620" fill="#171a14"/><rect x="42.000" y="158.600" width="1.620" height="1.620" fill="#171a14"/><rect x="43.600" y="158.600" width="1.620" height="1.620" fill="#171a14"/><rect x="45.200" y="158.600" width="1.620" height="1.620" fill="#171a14"/><rect x="46.800" y="158.600" width="1.620" height="1.620" fill="#171a14"/><rect x="50.000" y="158.600" width="1.620" height="1.620" fill="#171a14"/><rect x="51.600" y="158.600" width="1.620" height="1.620" fill="#171a14"/><rect x="53.200" y="158.600" width="1.620" height="1.620" fill="#171a14"/><rect x="54.800" y="158.600" width="1.620" height="1.620" fill="#171a14"/><rect x="18.000" y="160.200" width="1.620" height="1.620" fill="#171a14"/><rect x="21.200" y="160.200" width="1.620" height="1.620" fill="#171a14"/><rect x="22.800" y="160.200" width="1.620" height="1.620" fill="#171a14"/><rect x="24.400" y="160.200" width="1.620" height="1.620" fill="#171a14"/><rect x="26.000" y="160.200" width="1.620" height="1.620" fill="#171a14"/><rect x="27.600" y="160.200" width="1.620" height="1.620" fill="#171a14"/><rect x="29.200" y="160.200" width="1.620" height="1.620" fill="#171a14"/><rect x="30.800" y="160.200" width="1.620" height="1.620" fill="#171a14"/><rect x="38.800" y="160.200" width="1.620" height="1.620" fill="#171a14"/><rect x="40.400" y="160.200" width="1.620" height="1.620" fill="#171a14"/><rect x="43.600" y="160.200" width="1.620" height="1.620" fill="#171a14"/><rect x="48.400" y="160.200" width="1.620" height="1.620" fill="#171a14"/><rect x="50.000" y="160.200" width="1.620" height="1.620" fill="#171a14"/><rect x="51.600" y="160.200" width="1.620" height="1.620" fill="#171a14"/><rect x="53.200" y="160.200" width="1.620" height="1.620" fill="#171a14"/><rect x="54.800" y="160.200" width="1.620" height="1.620" fill="#171a14"/><rect x="18.000" y="161.800" width="1.620" height="1.620" fill="#171a14"/><rect x="22.800" y="161.800" width="1.620" height="1.620" fill="#171a14"/><rect x="30.800" y="161.800" width="1.620" height="1.620" fill="#171a14"/><rect x="35.600" y="161.800" width="1.620" height="1.620" fill="#171a14"/><rect x="45.200" y="161.800" width="1.620" height="1.620" fill="#171a14"/><rect x="51.600" y="161.800" width="1.620" height="1.620" fill="#171a14"/><rect x="18.000" y="163.400" width="1.620" height="1.620" fill="#171a14"/><rect x="19.600" y="163.400" width="1.620" height="1.620" fill="#171a14"/><rect x="21.200" y="163.400" width="1.620" height="1.620" fill="#171a14"/><rect x="22.800" y="163.400" width="1.620" height="1.620" fill="#171a14"/><rect x="26.000" y="163.400" width="1.620" height="1.620" fill="#171a14"/><rect x="27.600" y="163.400" width="1.620" height="1.620" fill="#171a14"/><rect x="29.200" y="163.400" width="1.620" height="1.620" fill="#171a14"/><rect x="32.400" y="163.400" width="1.620" height="1.620" fill="#171a14"/><rect x="34.000" y="163.400" width="1.620" height="1.620" fill="#171a14"/><rect x="38.800" y="163.400" width="1.620" height="1.620" fill="#171a14"/><rect x="40.400" y="163.400" width="1.620" height="1.620" fill="#171a14"/><rect x="43.600" y="163.400" width="1.620" height="1.620" fill="#171a14"/><rect x="45.200" y="163.400" width="1.620" height="1.620" fill="#171a14"/><rect x="46.800" y="163.400" width="1.620" height="1.620" fill="#171a14"/><rect x="50.000" y="163.400" width="1.620" height="1.620" fill="#171a14"/><rect x="51.600" y="163.400" width="1.620" height="1.620" fill="#171a14"/><rect x="18.000" y="165.000" width="1.620" height="1.620" fill="#171a14"/><rect x="22.800" y="165.000" width="1.620" height="1.620" fill="#171a14"/><rect x="24.400" y="165.000" width="1.620" height="1.620" fill="#171a14"/><rect x="26.000" y="165.000" width="1.620" height="1.620" fill="#171a14"/><rect x="40.400" y="165.000" width="1.620" height="1.620" fill="#171a14"/><rect x="43.600" y="165.000" width="1.620" height="1.620" fill="#171a14"/><rect x="45.200" y="165.000" width="1.620" height="1.620" fill="#171a14"/><rect x="46.800" y="165.000" width="1.620" height="1.620" fill="#171a14"/><rect x="53.200" y="165.000" width="1.620" height="1.620" fill="#171a14"/><rect x="54.800" y="165.000" width="1.620" height="1.620" fill="#171a14"/><rect x="56.400" y="165.000" width="1.620" height="1.620" fill="#171a14"/><rect x="18.000" y="166.600" width="1.620" height="1.620" fill="#171a14"/><rect x="24.400" y="166.600" width="1.620" height="1.620" fill="#171a14"/><rect x="27.600" y="166.600" width="1.620" height="1.620" fill="#171a14"/><rect x="30.800" y="166.600" width="1.620" height="1.620" fill="#171a14"/><rect x="34.000" y="166.600" width="1.620" height="1.620" fill="#171a14"/><rect x="35.600" y="166.600" width="1.620" height="1.620" fill="#171a14"/><rect x="38.800" y="166.600" width="1.620" height="1.620" fill="#171a14"/><rect x="43.600" y="166.600" width="1.620" height="1.620" fill="#171a14"/><rect x="45.200" y="166.600" width="1.620" height="1.620" fill="#171a14"/><rect x="46.800" y="166.600" width="1.620" height="1.620" fill="#171a14"/><rect x="48.400" y="166.600" width="1.620" height="1.620" fill="#171a14"/><rect x="50.000" y="166.600" width="1.620" height="1.620" fill="#171a14"/><rect x="53.200" y="166.600" width="1.620" height="1.620" fill="#171a14"/><rect x="54.800" y="166.600" width="1.620" height="1.620" fill="#171a14"/><rect x="56.400" y="166.600" width="1.620" height="1.620" fill="#171a14"/><rect x="30.800" y="168.200" width="1.620" height="1.620" fill="#171a14"/><rect x="34.000" y="168.200" width="1.620" height="1.620" fill="#171a14"/><rect x="40.400" y="168.200" width="1.620" height="1.620" fill="#171a14"/><rect x="43.600" y="168.200" width="1.620" height="1.620" fill="#171a14"/><rect x="50.000" y="168.200" width="1.620" height="1.620" fill="#171a14"/><rect x="51.600" y="168.200" width="1.620" height="1.620" fill="#171a14"/><rect x="18.000" y="169.800" width="1.620" height="1.620" fill="#171a14"/><rect x="19.600" y="169.800" width="1.620" height="1.620" fill="#171a14"/><rect x="21.200" y="169.800" width="1.620" height="1.620" fill="#171a14"/><rect x="22.800" y="169.800" width="1.620" height="1.620" fill="#171a14"/><rect x="24.400" y="169.800" width="1.620" height="1.620" fill="#171a14"/><rect x="26.000" y="169.800" width="1.620" height="1.620" fill="#171a14"/><rect x="27.600" y="169.800" width="1.620" height="1.620" fill="#171a14"/><rect x="32.400" y="169.800" width="1.620" height="1.620" fill="#171a14"/><rect x="34.000" y="169.800" width="1.620" height="1.620" fill="#171a14"/><rect x="35.600" y="169.800" width="1.620" height="1.620" fill="#171a14"/><rect x="37.200" y="169.800" width="1.620" height="1.620" fill="#171a14"/><rect x="42.000" y="169.800" width="1.620" height="1.620" fill="#171a14"/><rect x="43.600" y="169.800" width="1.620" height="1.620" fill="#171a14"/><rect x="46.800" y="169.800" width="1.620" height="1.620" fill="#171a14"/><rect x="50.000" y="169.800" width="1.620" height="1.620" fill="#171a14"/><rect x="53.200" y="169.800" width="1.620" height="1.620" fill="#171a14"/><rect x="54.800" y="169.800" width="1.620" height="1.620" fill="#171a14"/><rect x="56.400" y="169.800" width="1.620" height="1.620" fill="#171a14"/><rect x="18.000" y="171.400" width="1.620" height="1.620" fill="#171a14"/><rect x="27.600" y="171.400" width="1.620" height="1.620" fill="#171a14"/><rect x="30.800" y="171.400" width="1.620" height="1.620" fill="#171a14"/><rect x="35.600" y="171.400" width="1.620" height="1.620" fill="#171a14"/><rect x="37.200" y="171.400" width="1.620" height="1.620" fill="#171a14"/><rect x="43.600" y="171.400" width="1.620" height="1.620" fill="#171a14"/><rect x="50.000" y="171.400" width="1.620" height="1.620" fill="#171a14"/><rect x="51.600" y="171.400" width="1.620" height="1.620" fill="#171a14"/><rect x="53.200" y="171.400" width="1.620" height="1.620" fill="#171a14"/><rect x="54.800" y="171.400" width="1.620" height="1.620" fill="#171a14"/><rect x="56.400" y="171.400" width="1.620" height="1.620" fill="#171a14"/><rect x="18.000" y="173.000" width="1.620" height="1.620" fill="#171a14"/><rect x="21.200" y="173.000" width="1.620" height="1.620" fill="#171a14"/><rect x="22.800" y="173.000" width="1.620" height="1.620" fill="#171a14"/><rect x="24.400" y="173.000" width="1.620" height="1.620" fill="#171a14"/><rect x="27.600" y="173.000" width="1.620" height="1.620" fill="#171a14"/><rect x="30.800" y="173.000" width="1.620" height="1.620" fill="#171a14"/><rect x="37.200" y="173.000" width="1.620" height="1.620" fill="#171a14"/><rect x="38.800" y="173.000" width="1.620" height="1.620" fill="#171a14"/><rect x="42.000" y="173.000" width="1.620" height="1.620" fill="#171a14"/><rect x="43.600" y="173.000" width="1.620" height="1.620" fill="#171a14"/><rect x="45.200" y="173.000" width="1.620" height="1.620" fill="#171a14"/><rect x="46.800" y="173.000" width="1.620" height="1.620" fill="#171a14"/><rect x="48.400" y="173.000" width="1.620" height="1.620" fill="#171a14"/><rect x="50.000" y="173.000" width="1.620" height="1.620" fill="#171a14"/><rect x="53.200" y="173.000" width="1.620" height="1.620" fill="#171a14"/><rect x="54.800" y="173.000" width="1.620" height="1.620" fill="#171a14"/><rect x="18.000" y="174.600" width="1.620" height="1.620" fill="#171a14"/><rect x="21.200" y="174.600" width="1.620" height="1.620" fill="#171a14"/><rect x="22.800" y="174.600" width="1.620" height="1.620" fill="#171a14"/><rect x="24.400" y="174.600" width="1.620" height="1.620" fill="#171a14"/><rect x="27.600" y="174.600" width="1.620" height="1.620" fill="#171a14"/><rect x="30.800" y="174.600" width="1.620" height="1.620" fill="#171a14"/><rect x="34.000" y="174.600" width="1.620" height="1.620" fill="#171a14"/><rect x="35.600" y="174.600" width="1.620" height="1.620" fill="#171a14"/><rect x="37.200" y="174.600" width="1.620" height="1.620" fill="#171a14"/><rect x="40.400" y="174.600" width="1.620" height="1.620" fill="#171a14"/><rect x="42.000" y="174.600" width="1.620" height="1.620" fill="#171a14"/><rect x="43.600" y="174.600" width="1.620" height="1.620" fill="#171a14"/><rect x="48.400" y="174.600" width="1.620" height="1.620" fill="#171a14"/><rect x="53.200" y="174.600" width="1.620" height="1.620" fill="#171a14"/><rect x="56.400" y="174.600" width="1.620" height="1.620" fill="#171a14"/><rect x="18.000" y="176.200" width="1.620" height="1.620" fill="#171a14"/><rect x="21.200" y="176.200" width="1.620" height="1.620" fill="#171a14"/><rect x="22.800" y="176.200" width="1.620" height="1.620" fill="#171a14"/><rect x="24.400" y="176.200" width="1.620" height="1.620" fill="#171a14"/><rect x="27.600" y="176.200" width="1.620" height="1.620" fill="#171a14"/><rect x="32.400" y="176.200" width="1.620" height="1.620" fill="#171a14"/><rect x="34.000" y="176.200" width="1.620" height="1.620" fill="#171a14"/><rect x="35.600" y="176.200" width="1.620" height="1.620" fill="#171a14"/><rect x="37.200" y="176.200" width="1.620" height="1.620" fill="#171a14"/><rect x="40.400" y="176.200" width="1.620" height="1.620" fill="#171a14"/><rect x="45.200" y="176.200" width="1.620" height="1.620" fill="#171a14"/><rect x="50.000" y="176.200" width="1.620" height="1.620" fill="#171a14"/><rect x="53.200" y="176.200" width="1.620" height="1.620" fill="#171a14"/><rect x="54.800" y="176.200" width="1.620" height="1.620" fill="#171a14"/><rect x="56.400" y="176.200" width="1.620" height="1.620" fill="#171a14"/><rect x="18.000" y="177.800" width="1.620" height="1.620" fill="#171a14"/><rect x="27.600" y="177.800" width="1.620" height="1.620" fill="#171a14"/><rect x="30.800" y="177.800" width="1.620" height="1.620" fill="#171a14"/><rect x="34.000" y="177.800" width="1.620" height="1.620" fill="#171a14"/><rect x="35.600" y="177.800" width="1.620" height="1.620" fill="#171a14"/><rect x="37.200" y="177.800" width="1.620" height="1.620" fill="#171a14"/><rect x="38.800" y="177.800" width="1.620" height="1.620" fill="#171a14"/><rect x="43.600" y="177.800" width="1.620" height="1.620" fill="#171a14"/><rect x="45.200" y="177.800" width="1.620" height="1.620" fill="#171a14"/><rect x="48.400" y="177.800" width="1.620" height="1.620" fill="#171a14"/><rect x="50.000" y="177.800" width="1.620" height="1.620" fill="#171a14"/><rect x="54.800" y="177.800" width="1.620" height="1.620" fill="#171a14"/><rect x="18.000" y="179.400" width="1.620" height="1.620" fill="#171a14"/><rect x="19.600" y="179.400" width="1.620" height="1.620" fill="#171a14"/><rect x="21.200" y="179.400" width="1.620" height="1.620" fill="#171a14"/><rect x="22.800" y="179.400" width="1.620" height="1.620" fill="#171a14"/><rect x="24.400" y="179.400" width="1.620" height="1.620" fill="#171a14"/><rect x="26.000" y="179.400" width="1.620" height="1.620" fill="#171a14"/><rect x="27.600" y="179.400" width="1.620" height="1.620" fill="#171a14"/><rect x="32.400" y="179.400" width="1.620" height="1.620" fill="#171a14"/><rect x="34.000" y="179.400" width="1.620" height="1.620" fill="#171a14"/><rect x="37.200" y="179.400" width="1.620" height="1.620" fill="#171a14"/><rect x="38.800" y="179.400" width="1.620" height="1.620" fill="#171a14"/><rect x="42.000" y="179.400" width="1.620" height="1.620" fill="#171a14"/><rect x="54.800" y="179.400" width="1.620" height="1.620" fill="#171a14"/><rect x="56.400" y="179.400" width="1.620" height="1.620" fill="#171a14"/></g>
<circle cx="116" cy="161" r="15" fill="none" stroke="#171a14" stroke-width="0.5"/><g stroke="#171a14" stroke-width="0.5" stroke-linecap="round"><line x1="129.90" y1="161.00" x2="132.10" y2="161.00"/><line x1="129.76" y1="162.98" x2="131.94" y2="163.29"/><line x1="129.34" y1="164.92" x2="131.45" y2="165.54"/><line x1="128.64" y1="166.77" x2="130.65" y2="167.69"/><line x1="127.69" y1="168.51" x2="129.54" y2="169.70"/><line x1="126.50" y1="170.10" x2="128.17" y2="171.54"/><line x1="125.10" y1="171.50" x2="126.54" y2="173.17"/><line x1="123.51" y1="172.69" x2="124.70" y2="174.54"/><line x1="121.77" y1="173.64" x2="122.69" y2="175.65"/><line x1="119.92" y1="174.34" x2="120.54" y2="176.45"/><line x1="117.98" y1="174.76" x2="118.29" y2="176.94"/><line x1="116.00" y1="174.90" x2="116.00" y2="177.10"/><line x1="114.02" y1="174.76" x2="113.71" y2="176.94"/><line x1="112.08" y1="174.34" x2="111.46" y2="176.45"/><line x1="110.23" y1="173.64" x2="109.31" y2="175.65"/><line x1="108.49" y1="172.69" x2="107.30" y2="174.54"/><line x1="106.90" y1="171.50" x2="105.46" y2="173.17"/><line x1="105.50" y1="170.10" x2="103.83" y2="171.54"/><line x1="104.31" y1="168.51" x2="102.46" y2="169.70"/><line x1="103.36" y1="166.77" x2="101.35" y2="167.69"/><line x1="102.66" y1="164.92" x2="100.55" y2="165.54"/><line x1="102.24" y1="162.98" x2="100.06" y2="163.29"/><line x1="102.10" y1="161.00" x2="99.90" y2="161.00"/><line x1="102.24" y1="159.02" x2="100.06" y2="158.71"/><line x1="102.66" y1="157.08" x2="100.55" y2="156.46"/><line x1="103.36" y1="155.23" x2="101.35" y2="154.31"/><line x1="104.31" y1="153.49" x2="102.46" y2="152.30"/><line x1="105.50" y1="151.90" x2="103.83" y2="150.46"/><line x1="106.90" y1="150.50" x2="105.46" y2="148.83"/><line x1="108.49" y1="149.31" x2="107.30" y2="147.46"/><line x1="110.23" y1="148.36" x2="109.31" y2="146.35"/><line x1="112.08" y1="147.66" x2="111.46" y2="145.55"/><line x1="114.02" y1="147.24" x2="113.71" y2="145.06"/><line x1="116.00" y1="147.10" x2="116.00" y2="144.90"/><line x1="117.98" y1="147.24" x2="118.29" y2="145.06"/><line x1="119.92" y1="147.66" x2="120.54" y2="145.55"/><line x1="121.77" y1="148.36" x2="122.69" y2="146.35"/><line x1="123.51" y1="149.31" x2="124.70" y2="147.46"/><line x1="125.10" y1="150.50" x2="126.54" y2="148.83"/><line x1="126.50" y1="151.90" x2="128.17" y2="150.46"/><line x1="127.69" y1="153.49" x2="129.54" y2="152.30"/><line x1="128.64" y1="155.23" x2="130.65" y2="154.31"/><line x1="129.34" y1="157.08" x2="131.45" y2="156.46"/><line x1="129.76" y1="159.02" x2="131.94" y2="158.71"/></g><text x="116" y="164.9" font-family="Fraunces" font-weight="600" font-size="11.5" text-anchor="middle" fill="#171a14">40</text>
<text x="80" y="153" font-family="IBM Plex Mono" font-size="2.8" letter-spacing="1.1" text-anchor="middle" fill="#5f5f54">SCAN TO</text>
<text x="80" y="158" font-family="IBM Plex Mono" font-size="2.8" letter-spacing="1.1" text-anchor="middle" fill="#5f5f54">VERIFY</text>
<text x="80" y="163" font-family="IBM Plex Mono" font-size="2.8" letter-spacing="1.1" text-anchor="middle" fill="#5f5f54">TITLE</text>
<text x="75.0" y="187.5" font-family="IBM Plex Mono" font-size="2.35" letter-spacing="0.42" text-anchor="middle" fill="#5f5f54">RETURN ON DEMAND · NOT FOR RESALE · LEASE-A-FLEECE.COM</text>
</svg>