<?xml version="1.0" encoding="UTF-8" standalone="no"?>
<svg
   viewBox="0 0 900 520"
   version="1.1"
   id="svg4"
   xmlns="http://www.w3.org/2000/svg"
  >
  <defs
     id="defs4" />
  <g
     fill="none"
     stroke="#171a14"
     transform="translate(300,0)"
     id="g3">
    <path
       d="M 52 74 Q 52 52 74 52 H 164 Q 248 52 248 136 V 226 Q 248 248 226 248 H 74 Q 52 248 52 226 Z"
       stroke-width="15"
       stroke-linejoin="round"
       id="path1" />
    <path
       d="M 164 52 Q 164 136 248 136"
       stroke-width="15"
       stroke-linecap="round"
       id="path2" />
    <path
       d="M 82 84 H 152 M 82 84 V 218 M 82 218 H 218 M 218 218 V 158"
       stroke-width="9"
       stroke-linecap="round"
       stroke-dasharray="1 22"
       id="path3" />
  </g>
  <path
     d="m 183.21384,347.928 -4.212,0.624 q -0.988,0.156 -1.508,0.52 -0.52,0.312 -0.52,0.936 v 66.872 q 0,1.144 0.624,1.664 0.676,0.468 1.924,0.468 h 9.724 q 2.496,0 4.784,-0.988 2.34,-0.988 4.628,-3.588 2.34,-2.6 4.784,-7.436 l 5.096,-10.088 q 0.104,-0.208 0.208,-0.312 0.156,-0.156 0.312,-0.104 0.208,0.052 0.26,0.26 0.104,0.208 0,0.572 l -4.888,22.984 q -0.156,0.728 -0.26,0.884 -0.052,0.208 -0.208,0.208 -0.312,0 -0.988,-0.364 -0.676,-0.364 -1.768,-0.728 -1.092,-0.312 -2.652,-0.312 h -42.484 q -0.26,0 -0.416,-0.104 -0.104,-0.104 -0.104,-0.208 0,-0.312 0.624,-0.416 l 4.212,-0.624 q 1.04,-0.208 1.508,-0.52 0.52,-0.312 0.52,-0.936 v -67.184 q 0,-0.624 -0.52,-0.936 -0.468,-0.364 -1.508,-0.52 l -4.212,-0.624 q -0.624,-0.104 -0.624,-0.416 0,-0.104 0.104,-0.208 0.156,-0.104 0.416,-0.104 h 27.248 q 0.26,0 0.364,0.104 0.156,0.104 0.156,0.208 0,0.312 -0.624,0.416 z m 70.40792,45.188 q 0,0.468 -0.312,0.728 -0.26,0.26 -0.884,0.26 h -32.188 v -0.884 h 20.124 q 0.884,0 0.884,-0.988 0,-9.256 -2.496,-13.676 -2.444,-4.42 -5.98,-4.42 -2.912,0 -5.044,2.028 -2.132,1.976 -3.328,6.084 -1.144,4.108 -1.144,10.452 0,10.712 4.472,16.068 4.472,5.356 11.752,5.356 5.356,0 9.048,-2.964 3.744,-3.016 4.16,-8.112 0.052,-0.208 0.156,-0.26 0.104,-0.104 0.156,-0.104 0.104,0 0.208,0.104 0.104,0.104 0.104,0.364 -0.312,5.148 -3.016,9.204 -2.652,4.004 -7.072,6.344 -4.368,2.34 -9.828,2.34 -6.448,0 -11.336,-2.86 -4.836,-2.86 -7.592,-8.008 -2.756,-5.2 -2.756,-12.116 0,-7.384 2.756,-12.948 2.808,-5.564 7.904,-8.684 5.096,-3.12 11.908,-3.12 5.876,0 10.192,2.6 4.368,2.548 6.76,7.02 2.392,4.472 2.392,10.192 z m 30.83603,22.048 v -0.468 l -0.572,0.52 v -33.488 q 0,-3.744 -1.56,-5.72 -1.56,-1.976 -4.472,-1.976 -3.224,0 -4.836,1.612 -1.612,1.612 -1.612,3.692 v 4.212 q 0,2.6 -1.82,4.368 -1.82,1.768 -4.732,1.768 -2.028,0 -3.38,-1.196 -1.3,-1.248 -1.3,-3.744 0,-2.756 2.184,-5.356 2.184,-2.652 6.448,-4.368 4.316,-1.716 10.556,-1.716 8.528,0 12.74,3.588 4.264,3.536 4.264,10.088 v 26.988 q 0,1.82 0.624,2.652 0.624,0.78 1.56,0.78 0.936,0 1.664,-0.572 0.728,-0.572 0.936,-1.924 0,-0.156 0.052,-0.208 0.104,-0.104 0.208,-0.104 0.104,0 0.156,0.104 0.104,0.052 0.104,0.208 0,0.988 -0.936,2.392 -0.884,1.404 -2.912,2.548 -2.028,1.092 -5.408,1.092 -4.16,0 -6.084,-1.612 -1.872,-1.612 -1.872,-4.16 z m -26.884,-5.252 q 0,-5.668 4.68,-9.1 4.68,-3.484 14.872,-3.484 3.172,0 5.2,0.676 2.08,0.624 3.848,1.56 l -0.416,0.364 q -1.768,-0.832 -3.588,-1.3 -1.82,-0.468 -4.108,-0.468 -3.9,0 -6.032,2.6 -2.08,2.6 -2.08,7.332 0,4.576 2.028,6.968 2.028,2.34 5.252,2.34 2.184,0 4.264,-0.988 2.132,-1.04 3.536,-2.964 l 0.572,0.312 q -2.288,3.484 -6.292,5.356 -3.952,1.82 -8.528,1.82 -5.876,0 -9.568,-3.068 -3.64,-3.12 -3.64,-7.956 z m 66.45599,10.036 q 3.588,0 5.668,-1.872 2.132,-1.872 2.132,-4.888 0,-2.132 -0.988,-3.848 -0.988,-1.716 -3.38,-3.172 -2.34,-1.456 -6.448,-2.756 -6.136,-2.028 -9.62,-4.42 -3.484,-2.444 -4.992,-5.408 -1.456,-3.016 -1.456,-6.812 0,-6.5 4.42,-10.036 4.42,-3.536 11.804,-3.536 3.172,0 5.2,0.624 2.028,0.572 3.12,1.196 1.092,0.624 1.404,0.624 0.52,0 1.82,-0.624 1.3,-0.624 2.548,-1.196 1.3,-0.624 1.716,-0.624 0.208,0 0.364,0.104 0.208,0.052 0.26,0.468 l 2.756,14.976 q 0.104,0.416 0.052,0.676 -0.052,0.208 -0.208,0.312 -0.156,0.052 -0.312,0 -0.156,-0.052 -0.26,-0.26 -3.016,-5.772 -5.824,-9.1 -2.808,-3.38 -5.772,-4.784 -2.912,-1.456 -6.396,-1.456 -3.9,0 -6.084,1.976 -2.132,1.924 -2.132,5.2 0,2.184 0.988,3.952 1.04,1.768 3.64,3.276 2.6,1.508 7.384,2.86 5.46,1.56 8.788,3.9 3.328,2.288 4.784,5.252 1.456,2.964 1.456,6.604 0,4.264 -2.08,7.384 -2.028,3.068 -5.512,4.784 -3.484,1.664 -7.904,1.664 -2.86,0 -4.94,-0.832 -2.08,-0.78 -3.38,-1.56 -1.248,-0.832 -1.56,-0.832 -0.26,0 -1.404,0.728 -1.092,0.728 -2.288,1.508 -1.144,0.728 -1.56,0.728 -0.26,0 -0.52,-0.26 -0.26,-0.208 -0.364,-0.728 l -2.236,-12.844 q -0.052,-0.572 0,-0.78 0.052,-0.26 0.208,-0.364 0.156,-0.104 0.26,0 0.104,0.052 0.26,0.26 4.16,7.592 8.32,10.764 4.16,3.172 8.268,3.172 z m 62.97191,-26.832 q 0,0.468 -0.312,0.728 -0.26,0.26 -0.884,0.26 h -32.188 v -0.884 h 20.124 q 0.884,0 0.884,-0.988 0,-9.256 -2.496,-13.676 -2.444,-4.42 -5.98,-4.42 -2.912,0 -5.044,2.028 -2.132,1.976 -3.328,6.084 -1.144,4.108 -1.144,10.452 0,10.712 4.472,16.068 4.472,5.356 11.752,5.356 5.356,0 9.048,-2.964 3.744,-3.016 4.16,-8.112 0.052,-0.208 0.156,-0.26 0.104,-0.104 0.156,-0.104 0.104,0 0.208,0.104 0.104,0.104 0.104,0.364 -0.312,5.148 -3.016,9.204 -2.652,4.004 -7.072,6.344 -4.368,2.34 -9.828,2.34 -6.448,0 -11.336,-2.86 -4.836,-2.86 -7.592,-8.008 -2.756,-5.2 -2.756,-12.116 0,-7.384 2.756,-12.948 2.808,-5.564 7.904,-8.684 5.096,-3.12 11.908,-3.12 5.876,0 10.192,2.6 4.368,2.548 6.76,7.02 2.392,4.472 2.392,10.192 z m 24.75202,-3.38 q 0.26,0 0.26,0.364 l -0.676,5.824 q -0.052,0.208 -0.156,0.26 -0.104,0.052 -0.312,0.052 h -19.968 q -0.26,0 -0.26,-0.312 l 0.676,-5.824 q 0.052,-0.26 0.156,-0.312 0.104,-0.052 0.312,-0.052 z m 31.20008,25.428 v -0.468 l -0.572,0.52 v -33.488 q 0,-3.744 -1.56,-5.72 -1.56,-1.976 -4.472,-1.976 -3.224,0 -4.836,1.612 -1.612,1.612 -1.612,3.692 v 4.212 q 0,2.6 -1.82,4.368 -1.82,1.768 -4.732,1.768 -2.028,0 -3.38,-1.196 -1.3,-1.248 -1.3,-3.744 0,-2.756 2.184,-5.356 2.184,-2.652 6.448,-4.368 4.316,-1.716 10.556,-1.716 8.528,0 12.74,3.588 4.264,3.536 4.264,10.088 v 26.988 q 0,1.82 0.624,2.652 0.624,0.78 1.56,0.78 0.936,0 1.664,-0.572 0.728,-0.572 0.936,-1.924 0,-0.156 0.052,-0.208 0.104,-0.104 0.208,-0.104 0.104,0 0.156,0.104 0.104,0.052 0.104,0.208 0,0.988 -0.936,2.392 -0.884,1.404 -2.912,2.548 -2.028,1.092 -5.408,1.092 -4.16,0 -6.084,-1.612 -1.872,-1.612 -1.872,-4.16 z m -26.884,-5.252 q 0,-5.668 4.68,-9.1 4.68,-3.484 14.872,-3.484 3.172,0 5.2,0.676 2.08,0.624 3.848,1.56 l -0.416,0.364 q -1.768,-0.832 -3.588,-1.3 -1.82,-0.468 -4.108,-0.468 -3.9,0 -6.032,2.6 -2.08,2.6 -2.08,7.332 0,4.576 2.028,6.968 2.028,2.34 5.252,2.34 2.184,0 4.264,-0.988 2.132,-1.04 3.536,-2.964 l 0.572,0.312 q -2.288,3.484 -6.292,5.356 -3.952,1.82 -8.528,1.82 -5.876,0 -9.568,-3.068 -3.64,-3.12 -3.64,-7.956 z m 68.12001,-20.176 q 0.26,0 0.26,0.364 l -0.676,5.824 q -0.052,0.208 -0.156,0.26 -0.104,0.052 -0.312,0.052 h -19.968 q -0.26,0 -0.26,-0.312 l 0.676,-5.824 q 0.052,-0.26 0.156,-0.312 0.104,-0.052 0.312,-0.052 z M 532.18588,347.2 q 1.144,0 2.132,-0.312 0.988,-0.364 1.612,-0.728 0.624,-0.364 0.832,-0.364 0.156,0 0.208,0.208 0.104,0.156 0.26,0.832 l 4.628,18.564 q 0.052,0.364 0,0.52 -0.052,0.104 -0.208,0.208 -0.104,0 -0.26,-0.052 -0.104,-0.052 -0.26,-0.312 -3.9,-6.76 -7.176,-10.556 -3.224,-3.848 -6.292,-5.408 -3.016,-1.612 -6.344,-1.612 h -10.036 v 69.004 q 0,0.624 0.624,0.988 0.624,0.312 1.82,0.468 l 6.188,0.624 q 0.312,0.052 0.468,0.156 0.156,0.052 0.156,0.26 0,0.104 -0.156,0.208 -0.104,0.104 -0.364,0.104 h -29.64 q -0.26,0 -0.416,-0.104 -0.104,-0.104 -0.104,-0.208 0,-0.312 0.624,-0.416 l 4.212,-0.624 q 1.04,-0.208 1.508,-0.52 0.52,-0.312 0.52,-0.936 v -67.184 q 0,-0.624 -0.52,-0.936 -0.468,-0.364 -1.508,-0.52 l -4.212,-0.624 q -0.624,-0.104 -0.624,-0.416 0,-0.104 0.104,-0.208 0.156,-0.104 0.416,-0.104 z m -24.544,35.88 h 13.364 q 4.576,0 6.812,-1.924 2.288,-1.976 2.756,-7.176 0.052,-0.312 0.104,-0.416 0.104,-0.104 0.26,-0.104 0.364,-0.052 0.52,0.572 l 4.212,17.992 q 0.104,0.312 0,0.468 -0.052,0.156 -0.156,0.208 -0.156,0.052 -0.312,0.052 -0.104,-0.052 -0.312,-0.26 -2.392,-3.276 -4.212,-5.096 -1.768,-1.872 -3.692,-2.6 -1.924,-0.728 -4.628,-0.728 h -14.716 z m 54.2361,-39.676 v 73.736 q 0,0.676 0.26,1.092 0.312,0.416 0.988,0.52 l 2.86,0.52 q 0.312,0 0.416,0.156 0.104,0.104 0.104,0.26 0,0.104 -0.104,0.208 -0.104,0.104 -0.312,0.104 h -20.956 q -0.156,0 -0.312,-0.104 -0.104,-0.104 -0.104,-0.208 0,-0.156 0.156,-0.26 0.156,-0.156 0.52,-0.208 l 2.808,-0.468 q 0.676,-0.104 0.936,-0.52 0.312,-0.416 0.312,-1.04 v -68.588 q 0,-0.312 -0.156,-0.468 -0.156,-0.208 -0.52,-0.208 h -3.38 q -0.26,0 -0.364,-0.104 -0.104,-0.104 -0.104,-0.26 0,-0.208 0.104,-0.26 0.156,-0.104 0.312,-0.156 l 14.924,-4.16 q 0.468,-0.104 0.624,-0.104 0.208,-0.052 0.416,-0.052 0.26,0 0.416,0.156 0.156,0.156 0.156,0.416 z m 49.81604,49.712 q 0,0.468 -0.312,0.728 -0.26,0.26 -0.884,0.26 h -32.188 v -0.884 h 20.124 q 0.884,0 0.884,-0.988 0,-9.256 -2.496,-13.676 -2.444,-4.42 -5.98,-4.42 -2.912,0 -5.044,2.028 -2.132,1.976 -3.328,6.084 -1.144,4.108 -1.144,10.452 0,10.712 4.472,16.068 4.472,5.356 11.752,5.356 5.356,0 9.048,-2.964 3.744,-3.016 4.16,-8.112 0.052,-0.208 0.156,-0.26 0.104,-0.104 0.156,-0.104 0.104,0 0.208,0.104 0.104,0.104 0.104,0.364 -0.312,5.148 -3.016,9.204 -2.652,4.004 -7.072,6.344 -4.368,2.34 -9.828,2.34 -6.448,0 -11.336,-2.86 -4.836,-2.86 -7.592,-8.008 -2.756,-5.2 -2.756,-12.116 0,-7.384 2.756,-12.948 2.808,-5.564 7.904,-8.684 5.096,-3.12 11.908,-3.12 5.876,0 10.192,2.6 4.368,2.548 6.76,7.02 2.392,4.472 2.392,10.192 z m 45.44806,0 q 0,0.468 -0.312,0.728 -0.26,0.26 -0.884,0.26 h -32.188 v -0.884 h 20.124 q 0.884,0 0.884,-0.988 0,-9.256 -2.496,-13.676 -2.444,-4.42 -5.98,-4.42 -2.912,0 -5.044,2.028 -2.132,1.976 -3.328,6.084 -1.144,4.108 -1.144,10.452 0,10.712 4.472,16.068 4.472,5.356 11.752,5.356 5.356,0 9.048,-2.964 3.744,-3.016 4.16,-8.112 0.052,-0.208 0.156,-0.26 0.104,-0.104 0.156,-0.104 0.104,0 0.208,0.104 0.104,0.104 0.104,0.364 -0.312,5.148 -3.016,9.204 -2.652,4.004 -7.072,6.344 -4.368,2.34 -9.828,2.34 -6.448,0 -11.336,-2.86 -4.836,-2.86 -7.592,-8.008 -2.756,-5.2 -2.756,-12.116 0,-7.384 2.756,-12.948 2.808,-5.564 7.904,-8.684 5.096,-3.12 11.908,-3.12 5.876,0 10.192,2.6 4.368,2.548 6.76,7.02 2.392,4.472 2.392,10.192 z m 43.94,-7.592 q 0,2.756 -1.612,4.42 -1.56,1.664 -4.264,1.664 -2.808,0 -4.42,-1.716 -1.612,-1.716 -1.612,-4.94 v -3.796 q 0,-3.276 -1.768,-5.096 -1.716,-1.872 -4.68,-1.872 -3.068,0 -5.408,2.184 -2.288,2.184 -3.536,6.24 -1.248,4.004 -1.248,9.516 0,6.864 1.976,11.596 1.976,4.68 5.356,7.124 3.432,2.392 7.748,2.392 4.732,0 8.112,-2.132 3.38,-2.132 4.576,-6.656 0.052,-0.208 0.156,-0.26 0.104,-0.104 0.208,-0.052 0.156,0 0.208,0.156 0.052,0.104 0,0.312 -0.988,5.2 -3.692,8.892 -2.652,3.64 -6.708,5.564 -4.004,1.924 -9.152,1.924 -5.876,0 -10.556,-2.6 -4.628,-2.6 -7.332,-7.696 -2.704,-5.096 -2.704,-12.532 0,-7.124 2.912,-12.688 2.964,-5.616 8.112,-8.892 5.2,-3.276 11.96,-3.276 5.616,0 9.464,1.612 3.848,1.612 5.876,4.368 2.028,2.756 2.028,6.24 z m 45.13605,7.592 q 0,0.468 -0.312,0.728 -0.26,0.26 -0.884,0.26 h -32.188 v -0.884 h 20.124 q 0.884,0 0.884,-0.988 0,-9.256 -2.496,-13.676 -2.444,-4.42 -5.98,-4.42 -2.912,0 -5.044,2.028 -2.132,1.976 -3.328,6.084 -1.144,4.108 -1.144,10.452 0,10.712 4.472,16.068 4.472,5.356 11.752,5.356 5.356,0 9.048,-2.964 3.744,-3.016 4.16,-8.112 0.052,-0.208 0.156,-0.26 0.104,-0.104 0.156,-0.104 0.104,0 0.208,0.104 0.104,0.104 0.104,0.364 -0.312,5.148 -3.016,9.204 -2.652,4.004 -7.072,6.344 -4.368,2.34 -9.828,2.34 -6.448,0 -11.336,-2.86 -4.836,-2.86 -7.592,-8.008 -2.756,-5.2 -2.756,-12.116 0,-7.384 2.756,-12.948 2.808,-5.564 7.904,-8.684 5.096,-3.12 11.908,-3.12 5.876,0 10.192,2.6 4.368,2.548 6.76,7.02 2.392,4.472 2.392,10.192 z"
     id="text3"
     style="font-weight:600;font-size:104px;font-family:Fraunces;text-anchor:middle;fill:#171a14"
     aria-label="Lease-a-Fleece" />
  <path
     d="m 232.22189,470 v -18.846 h 11.799 v 2.538 h -8.775 v 5.481 h 8.451 v 2.538 h -8.451 v 5.751 h 8.775 V 470 Z m 26.81601,0.324 q -2.457,0 -4.131,-0.864 -1.674,-0.864 -2.754,-2.295 l 1.944,-1.863 q 1.08,1.296 2.295,1.917 1.215,0.594 2.754,0.594 1.782,0 2.727,-0.81 0.972,-0.81 0.972,-2.322 0,-1.215 -0.702,-1.863 -0.702,-0.675 -2.403,-0.972 l -2.052,-0.324 q -1.35,-0.216 -2.268,-0.702 -0.918,-0.513 -1.485,-1.188 -0.567,-0.702 -0.837,-1.539 -0.243,-0.864 -0.243,-1.809 0,-2.673 1.728,-4.05 1.728,-1.404 4.752,-1.404 2.241,0 3.807,0.729 1.593,0.702 2.565,1.998 l -1.89,1.89 q -0.783,-0.945 -1.863,-1.512 -1.053,-0.594 -2.619,-0.594 -1.674,0 -2.565,0.729 -0.864,0.702 -0.864,2.079 0,1.161 0.675,1.836 0.702,0.648 2.457,0.945 l 1.998,0.351 q 2.538,0.459 3.699,1.863 1.161,1.377 1.161,3.375 0,1.296 -0.459,2.376 -0.432,1.08 -1.323,1.836 -0.864,0.756 -2.16,1.188 -1.269,0.405 -2.916,0.405 z m 22.87401,-16.632 V 470 h -3.024 v -16.308 h -5.913 v -2.538 h 14.85 v 2.538 z m 19.68801,16.578 q -1.296,0 -1.836,-0.54 -0.513,-0.54 -0.513,-1.323 v -0.702 q 0,-0.783 0.513,-1.323 0.54,-0.54 1.836,-0.54 1.296,0 1.809,0.54 0.54,0.54 0.54,1.323 v 0.702 q 0,0.783 -0.54,1.323 -0.513,0.54 -1.809,0.54 z M 338.27595,470 v -2.511 h 5.292 v -14.121 h -0.216 l -4.374,4.671 -1.863,-1.674 4.806,-5.211 h 4.671 v 16.335 h 4.563 V 470 Z m 33.593,-11.826 q 0,2.052 -0.621,3.861 -0.621,1.809 -1.62,3.321 -0.999,1.512 -2.214,2.7 -1.215,1.188 -2.403,1.944 h -4.05 q 1.62,-1.161 2.916,-2.241 1.296,-1.08 2.241,-2.214 0.972,-1.134 1.62,-2.376 0.648,-1.269 0.999,-2.808 l -0.189,-0.054 q -0.297,0.567 -0.702,1.08 -0.405,0.486 -0.945,0.864 -0.54,0.378 -1.242,0.594 -0.702,0.216 -1.593,0.216 -1.215,0 -2.241,-0.405 -1.026,-0.405 -1.782,-1.161 -0.756,-0.783 -1.188,-1.863 -0.405,-1.08 -0.405,-2.43 0,-1.404 0.459,-2.565 0.486,-1.188 1.35,-2.025 0.891,-0.837 2.133,-1.296 1.242,-0.486 2.754,-0.486 1.566,0 2.808,0.513 1.269,0.513 2.133,1.485 0.864,0.945 1.323,2.295 0.459,1.35 0.459,3.051 z m -6.696,2.484 q 1.701,0 2.646,-0.918 0.945,-0.945 0.945,-2.646 v -0.27 q 0,-1.701 -0.945,-2.619 -0.945,-0.945 -2.646,-0.945 -1.728,0 -2.673,0.945 -0.945,0.918 -0.945,2.619 v 0.27 q 0,1.701 0.945,2.646 0.945,0.918 2.673,0.918 z m 21.22701,9.666 q -1.674,0 -2.943,-0.405 -1.269,-0.432 -2.133,-1.161 -0.864,-0.729 -1.323,-1.728 -0.432,-0.999 -0.432,-2.187 0,-1.89 1.053,-3.024 1.053,-1.134 2.754,-1.593 v -0.216 q -1.458,-0.513 -2.349,-1.62 -0.891,-1.107 -0.891,-2.727 0,-2.187 1.62,-3.51 1.647,-1.323 4.644,-1.323 2.997,0 4.617,1.323 1.647,1.323 1.647,3.51 0,1.62 -0.891,2.727 -0.891,1.107 -2.349,1.62 v 0.216 q 1.701,0.459 2.754,1.593 1.053,1.134 1.053,3.024 0,1.188 -0.459,2.187 -0.432,0.999 -1.296,1.728 -0.864,0.729 -2.133,1.161 -1.269,0.405 -2.943,0.405 z m 0,-2.403 q 1.782,0 2.727,-0.783 0.972,-0.783 0.972,-2.214 v -0.567 q 0,-1.431 -0.972,-2.214 -0.945,-0.783 -2.727,-0.783 -1.782,0 -2.754,0.783 -0.945,0.783 -0.945,2.214 v 0.567 q 0,1.431 0.945,2.214 0.972,0.783 2.754,0.783 z m 0,-8.883 q 1.62,0 2.457,-0.702 0.864,-0.729 0.864,-2.025 v -0.351 q 0,-1.296 -0.864,-1.998 -0.837,-0.729 -2.457,-0.729 -1.62,0 -2.484,0.729 -0.837,0.702 -0.837,1.998 v 0.351 q 0,1.296 0.837,2.025 0.864,0.702 2.484,0.702 z m 21.25401,11.286 q -1.593,0 -2.835,-0.513 -1.242,-0.513 -2.106,-1.458 -0.864,-0.972 -1.323,-2.322 -0.459,-1.35 -0.459,-3.051 0,-2.052 0.621,-3.861 0.621,-1.809 1.62,-3.321 0.999,-1.512 2.214,-2.673 1.215,-1.188 2.403,-1.971 h 4.05 q -1.62,1.161 -2.916,2.241 -1.296,1.08 -2.268,2.214 -0.945,1.134 -1.593,2.403 -0.648,1.242 -0.999,2.781 l 0.189,0.054 q 0.297,-0.567 0.702,-1.053 0.405,-0.513 0.945,-0.891 0.54,-0.378 1.242,-0.594 0.702,-0.216 1.593,-0.216 1.215,0 2.241,0.405 1.026,0.405 1.782,1.188 0.756,0.756 1.161,1.836 0.432,1.08 0.432,2.43 0,1.404 -0.486,2.592 -0.459,1.161 -1.35,1.998 -0.864,0.837 -2.106,1.323 -1.242,0.459 -2.754,0.459 z m -0.027,-2.43 q 1.728,0 2.673,-0.918 0.945,-0.945 0.945,-2.646 v -0.27 q 0,-1.701 -0.945,-2.619 -0.945,-0.945 -2.673,-0.945 -1.701,0 -2.646,0.945 -0.945,0.918 -0.945,2.619 v 0.27 q 0,1.701 0.945,2.646 0.945,0.918 2.646,0.918 z M 450,464.006 q -1.296,0 -1.836,-0.54 -0.513,-0.54 -0.513,-1.323 v -0.702 q 0,-0.783 0.513,-1.323 0.54,-0.54 1.836,-0.54 1.296,0 1.809,0.54 0.54,0.54 0.54,1.323 v 0.702 q 0,0.783 -0.54,1.323 -0.513,0.54 -1.809,0.54 z m 45.91001,3.402 h -0.189 q -0.243,0.567 -0.594,1.107 -0.324,0.513 -0.837,0.918 -0.486,0.405 -1.188,0.648 -0.702,0.243 -1.62,0.243 -2.943,0 -4.428,-2.511 -1.485,-2.511 -1.485,-7.101 0,-4.806 1.701,-7.344 1.701,-2.538 5.211,-2.538 1.377,0 2.403,0.378 1.053,0.378 1.782,1.026 0.729,0.621 1.215,1.485 0.486,0.837 0.783,1.782 l -2.727,0.918 q -0.216,-0.621 -0.486,-1.161 -0.27,-0.567 -0.675,-0.999 -0.378,-0.432 -0.945,-0.675 -0.54,-0.243 -1.323,-0.243 -1.971,0 -2.862,1.539 -0.864,1.512 -0.864,4.104 v 2.997 q 0,1.296 0.189,2.376 0.189,1.08 0.621,1.863 0.459,0.756 1.161,1.188 0.729,0.432 1.755,0.432 1.647,0 2.511,-0.972 0.891,-0.999 0.891,-2.538 v -1.701 h -3.645 v -2.268 h 6.399 V 470 h -2.754 z M 510.76502,470 h -2.997 v -18.846 h 7.047 q 2.7,0 4.104,1.512 1.431,1.512 1.431,4.158 0,2.16 -1.053,3.564 -1.053,1.404 -3.024,1.728 l 4.347,7.884 h -3.348 l -3.996,-7.614 h -2.511 z m 3.618,-10.044 q 2.808,0 2.808,-2.565 v -1.161 q 0,-2.565 -2.808,-2.565 h -3.618 v 6.291 z m 20.41701,10.368 q -1.782,0 -3.105,-0.648 -1.296,-0.675 -2.16,-1.917 -0.837,-1.242 -1.242,-3.051 -0.405,-1.809 -0.405,-4.131 0,-2.295 0.405,-4.104 0.405,-1.836 1.242,-3.078 0.864,-1.242 2.16,-1.89 1.323,-0.675 3.105,-0.675 1.782,0 3.078,0.675 1.323,0.648 2.16,1.89 0.864,1.242 1.269,3.078 0.405,1.809 0.405,4.104 0,2.322 -0.405,4.131 -0.405,1.809 -1.269,3.051 -0.837,1.242 -2.16,1.917 -1.296,0.648 -3.078,0.648 z m 0,-2.511 q 2.025,0 2.862,-1.512 0.837,-1.539 0.837,-4.158 v -3.159 q 0,-2.592 -0.837,-4.104 -0.837,-1.539 -2.862,-1.539 -2.025,0 -2.862,1.539 -0.837,1.512 -0.837,4.104 v 3.186 q 0,2.592 0.837,4.131 0.837,1.512 2.862,1.512 z m 17.93301,-12.312 h -0.243 V 470 h -2.646 v -18.846 h 3.888 l 5.535,14.499 h 0.243 v -14.499 h 2.646 V 470 h -3.888 z M 571.26006,470 v -2.295 h 4.428 v -14.256 h -4.428 v -2.295 h 11.88 v 2.295 h -4.428 v 14.256 h 4.428 V 470 Z m 23.87301,-14.499 h -0.243 V 470 h -2.646 v -18.846 h 3.888 l 5.535,14.499 h 0.243 v -14.499 h 2.646 V 470 h -3.888 z m 27.97701,11.907 h -0.189 q -0.243,0.567 -0.594,1.107 -0.324,0.513 -0.837,0.918 -0.486,0.405 -1.188,0.648 -0.702,0.243 -1.62,0.243 -2.943,0 -4.428,-2.511 -1.485,-2.511 -1.485,-7.101 0,-4.806 1.701,-7.344 1.701,-2.538 5.211,-2.538 1.377,0 2.403,0.378 1.053,0.378 1.782,1.026 0.729,0.621 1.215,1.485 0.486,0.837 0.783,1.782 l -2.727,0.918 q -0.216,-0.621 -0.486,-1.161 -0.27,-0.567 -0.675,-0.999 -0.378,-0.432 -0.945,-0.675 -0.54,-0.243 -1.323,-0.243 -1.971,0 -2.862,1.539 -0.864,1.512 -0.864,4.104 v 2.997 q 0,1.296 0.189,2.376 0.189,1.08 0.621,1.863 0.459,0.756 1.161,1.188 0.729,0.432 1.755,0.432 1.647,0 2.511,-0.972 0.891,-0.999 0.891,-2.538 v -1.701 h -3.645 v -2.268 h 6.399 V 470 h -2.754 z M 635.02209,470 v -18.846 h 11.799 v 2.538 h -8.775 v 5.481 h 8.451 v 2.538 h -8.451 v 5.751 h 8.775 V 470 Z m 23.71102,-14.499 h -0.243 V 470 h -2.646 v -18.846 h 3.888 l 5.535,14.499 h 0.243 v -14.499 h 2.646 V 470 h -3.888 z"
     id="text4"
     style="font-weight:500;font-size:27px;font-family:'IBM Plex Mono';letter-spacing:5;text-anchor:middle;fill:#6e6e62"
     aria-label="EST. 1986 · GRONINGEN" />
</svg>
